999
Generated by Autodesk CAM - http://cam.autodesk.com
0
SECTION
2
HEADER
9
$ACADVER
1
AC1006
9
$ANGBASE
50
0
9
$ANGDIR
70
0
0
ENDSEC
0
SECTION
2
BLOCKS
0
ENDSEC
9
$EXTMIN
10
-136.586
20
-78.23
30
0
9
$EXTMAX
10
106.855
20
78.23
30
15
0
SECTION
2
ENTITIES
0
LINE
8
1
62
1
10
-63.414
20
14.777
30
0
11
-63.414
21
-77.83
31
0
0
ARC
8
1
62
1
10
-63.814
20
-77.83
30
0
40
0.4
50
-90
51
0
0
LINE
8
1
62
1
10
-63.814
20
-78.23
30
0
11
-131.286
21
-78.23
31
0
0
ARC
8
1
62
1
10
-131.286
20
-72.93
30
0
40
5.3
50
180
51
-90
0
LINE
8
1
62
1
10
-136.586
20
-72.93
30
0
11
-136.586
21
72.93
31
0
0
ARC
8
1
62
1
10
-131.286
20
72.93
30
0
40
5.3
50
90
51
180
0
LINE
8
1
62
1
10
-131.286
20
78.23
30
0
11
-63.814
21
78.23
31
0
0
ARC
8
1
62
1
10
-63.814
20
77.83
30
0
40
0.4
50
0
51
90
0
LINE
8
1
62
1
10
-63.414
20
77.83
30
0
11
-63.414
21
14.777
31
0
0
LINE
8
1
62
1
10
-32.555
20
-55.028
30
0
11
-32.555
21
-72.93
31
0
0
ARC
8
1
62
1
10
-37.855
20
-72.93
30
0
40
5.3
50
-90
51
0
0
LINE
8
1
62
1
10
-37.855
20
-78.23
30
0
11
-50.045
21
-78.23
31
0
0
ARC
8
1
62
1
10
-50.045
20
-77.83
30
0
40
0.4
50
180
51
-90
0
LINE
8
1
62
1
10
-50.445
20
-77.83
30
0
11
-50.445
21
77.83
31
0
0
ARC
8
1
62
1
10
-50.045
20
77.83
30
0
40
0.4
50
90
51
180
0
LINE
8
1
62
1
10
-50.045
20
78.23
30
0
11
-37.855
21
78.23
31
0
0
ARC
8
1
62
1
10
-37.855
20
72.93
30
0
40
5.3
50
0
51
90
0
LINE
8
1
62
1
10
-32.555
20
72.93
30
0
11
-32.555
21
-55.028
31
0
0
LINE
8
1
62
1
10
0.3
20
-24.07
30
0
11
0.3
21
-62.93
31
0
0
ARC
8
1
62
1
10
0
20
-62.93
30
0
40
0.3
50
-90
51
0
0
LINE
8
1
62
1
10
0
20
-63.23
30
0
11
-7.5
21
-63.23
31
0
0
ARC
8
1
62
1
10
-7.5
20
-62.93
30
0
40
0.3
50
180
51
-90
0
LINE
8
1
62
1
10
-7.8
20
-62.93
30
0
11
-7.8
21
-60.3
31
0
0
LINE
8
1
62
1
10
-7.8
20
-60.3
30
0
11
-12.2
21
-60.3
31
0
0
LINE
8
1
62
1
10
-12.2
20
-60.3
30
0
11
-12.2
21
-62.93
31
0
0
ARC
8
1
62
1
10
-12.5
20
-62.93
30
0
40
0.3
50
-90
51
0
0
LINE
8
1
62
1
10
-12.5
20
-63.23
30
0
11
-20
21
-63.23
31
0
0
ARC
8
1
62
1
10
-20
20
-62.93
30
0
40
0.3
50
180
51
-90
0
LINE
8
1
62
1
10
-20.3
20
-62.93
30
0
11
-20.3
21
62.93
31
0
0
ARC
8
1
62
1
10
-20
20
62.93
30
0
40
0.3
50
90
51
180
0
LINE
8
1
62
1
10
-20
20
63.23
30
0
11
-12.5
21
63.23
31
0
0
ARC
8
1
62
1
10
-12.5
20
62.93
30
0
40
0.3
50
0
51
90
0
LINE
8
1
62
1
10
-12.2
20
62.93
30
0
11
-12.2
21
60.3
31
0
0
LINE
8
1
62
1
10
-12.2
20
60.3
30
0
11
-7.8
21
60.3
31
0
0
LINE
8
1
62
1
10
-7.8
20
60.3
30
0
11
-7.8
21
62.93
31
0
0
ARC
8
1
62
1
10
-7.5
20
62.93
30
0
40
0.3
50
90
51
180
0
LINE
8
1
62
1
10
-7.5
20
63.23
30
0
11
0
21
63.23
31
0
0
ARC
8
1
62
1
10
0
20
62.93
30
0
40
0.3
50
0
51
90
0
LINE
8
1
62
1
10
0.3
20
62.93
30
0
11
0.3
21
-24.07
31
0
0
LINE
8
1
62
1
10
55.79
20
13.235
30
0
11
6.625
21
13.235
31
0
0
ARC
8
1
62
1
10
6.625
20
15.535
30
0
40
2.3
50
180
51
-90
0
LINE
8
1
62
1
10
4.325
20
15.535
30
0
11
4.325
21
22
31
0
0
ARC
8
1
62
1
10
6.625
20
22
30
0
40
2.3
50
105.000566
51
-179.999192
0
LINE
8
1
62
1
10
6.029
20
24.222
30
0
11
23.065
21
28.787
31
0
0
ARC
8
1
62
1
10
22.625
20
30.429
30
0
40
1.7
50
-74.998419
51
-0.000643
0
LINE
8
1
62
1
10
24.325
20
30.429
30
0
11
24.325
21
48.243
31
0
0
ARC
8
1
62
1
10
22.625
20
48.243
30
0
40
1.7
50
-0.001414
51
74.997261
0
LINE
8
1
62
1
10
23.065
20
49.885
30
0
11
6.029
21
54.449
31
0
0
ARC
8
1
62
1
10
6.625
20
56.671
30
0
40
2.3
50
-179.99905
51
-104.999549
0
LINE
8
1
62
1
10
4.325
20
56.671
30
0
11
4.325
21
63.136
31
0
0
ARC
8
1
62
1
10
6.625
20
63.136
30
0
40
2.3
50
90
51
180
0
LINE
8
1
62
1
10
6.625
20
65.436
30
0
11
16.587
21
65.436
31
0
0
LINE
8
1
62
1
10
16.587
20
65.436
30
0
11
16.587
21
65.436
31
0
0
ARC
8
1
62
1
10
16.587
20
65.036
30
0
40
0.4
50
75.015609
51
89.9694
0
LINE
8
1
62
1
10
16.69
20
65.423
30
0
11
36.581
21
60.093
31
0
0
ARC
8
1
62
1
10
36.477
20
59.707
30
0
40
0.4
50
-15.022133
51
75.013386
0
LINE
8
1
62
1
10
36.864
20
59.603
30
0
11
35.83
21
55.744
31
0
0
LINE
8
1
62
1
10
35.83
20
55.744
30
0
11
38.273
21
55.089
31
0
0
ARC
8
1
62
1
10
38.17
20
54.703
30
0
40
0.4
50
-15.003957
51
74.998964
0
LINE
8
1
62
1
10
38.556
20
54.6
30
0
11
36.408
21
46.582
31
0
0
ARC
8
1
62
1
10
36.022
20
46.686
30
0
40
0.4
50
-105.005013
51
-15.002374
0
LINE
8
1
62
1
10
35.918
20
46.3
30
0
11
33.474
21
46.954
31
0
0
LINE
8
1
62
1
10
33.474
20
46.954
30
0
11
32.492
21
43.289
31
0
0
LINE
8
1
62
1
10
32.492
20
43.289
30
0
11
40.403
21
41.169
31
0
0
LINE
8
1
62
1
10
40.403
20
41.169
30
0
11
41.058
21
43.613
31
0
0
ARC
8
1
62
1
10
41.444
20
43.509
30
0
40
0.4
50
74.995901
51
164.997767
0
LINE
8
1
62
1
10
41.548
20
43.896
30
0
11
65.503
21
37.477
31
0
0
ARC
8
1
62
1
10
65.399
20
37.09
30
0
40
0.4
50
-15.003957
51
74.997767
0
LINE
8
1
62
1
10
65.786
20
36.987
30
0
11
65.131
21
34.543
31
0
0
LINE
8
1
62
1
10
65.131
20
34.543
30
0
11
72.204
21
32.648
31
0
0
LINE
8
1
62
1
10
72.204
20
32.648
30
0
11
72.859
21
35.092
31
0
0
ARC
8
1
62
1
10
73.245
20
34.988
30
0
40
0.4
50
75.039087
51
164.995477
0
LINE
8
1
62
1
10
73.348
20
35.375
30
0
11
73.349
21
35.375
31
0
0
LINE
8
1
62
1
10
73.349
20
35.375
30
0
11
97.304
21
28.956
31
0
0
ARC
8
1
62
1
10
97.2
20
28.569
30
0
40
0.4
50
-15.003976
51
74.998752
0
LINE
8
1
62
1
10
97.586
20
28.466
30
0
11
96.932
21
26.022
31
0
0
LINE
8
1
62
1
10
96.932
20
26.022
30
0
11
105.133
21
23.825
31
0
0
ARC
8
1
62
1
10
105.055
20
23.535
30
0
40
0.3
50
-15.004605
51
75.000252
0
LINE
8
1
62
1
10
105.345
20
23.457
30
0
11
103.062
21
14.94
31
0
0
ARC
8
1
62
1
10
100.84
20
15.535
30
0
40
2.3
50
-89.984412
51
-14.990685
0
LINE
8
1
62
1
10
100.841
20
13.235
30
0
11
55.79
21
13.235
31
0
0
LINE
8
1
62
1
10
57.8
20
1.765
30
0
11
102.341
21
1.765
31
0
0
ARC
8
1
62
1
10
102.34
20
-0.535
30
0
40
2.3
50
14.991837
51
89.986504
0
LINE
8
1
62
1
10
104.562
20
0.06
30
0
11
106.845
21
-8.457
31
0
0
ARC
8
1
62
1
10
106.555
20
-8.535
30
0
40
0.3
50
-75.000299
51
15.004429
0
LINE
8
1
62
1
10
106.633
20
-8.825
30
0
11
98.432
21
-11.022
31
0
0
LINE
8
1
62
1
10
98.432
20
-11.022
30
0
11
99.086
21
-13.466
31
0
0
ARC
8
1
62
1
10
98.7
20
-13.569
30
0
40
0.4
50
-74.991995
51
15.004108
0
LINE
8
1
62
1
10
98.804
20
-13.956
30
0
11
74.849
21
-20.375
31
0
0
LINE
8
1
62
1
10
74.849
20
-20.375
30
0
11
74.848
21
-20.375
31
0
0
ARC
8
1
62
1
10
74.745
20
-19.988
30
0
40
0.4
50
-164.984091
51
-75.039017
0
LINE
8
1
62
1
10
74.359
20
-20.092
30
0
11
73.704
21
-17.648
31
0
0
LINE
8
1
62
1
10
73.704
20
-17.648
30
0
11
66.631
21
-19.543
31
0
0
LINE
8
1
62
1
10
66.631
20
-19.543
30
0
11
67.286
21
-21.987
31
0
0
ARC
8
1
62
1
10
66.899
20
-22.09
30
0
40
0.4
50
-74.990939
51
15.003693
0
LINE
8
1
62
1
10
67.003
20
-22.477
30
0
11
43.048
21
-28.896
31
0
0
ARC
8
1
62
1
10
42.944
20
-28.509
30
0
40
0.4
50
-164.99101
51
-74.996043
0
LINE
8
1
62
1
10
42.558
20
-28.613
30
0
11
41.903
21
-26.169
31
0
0
LINE
8
1
62
1
10
41.903
20
-26.169
30
0
11
33.992
21
-28.289
31
0
0
LINE
8
1
62
1
10
33.992
20
-28.289
30
0
11
34.974
21
-31.954
31
0
0
LINE
8
1
62
1
10
34.974
20
-31.954
30
0
11
37.418
21
-31.3
31
0
0
ARC
8
1
62
1
10
37.522
20
-31.686
30
0
40
0.4
50
15.008868
51
105.005154
0
LINE
8
1
62
1
10
37.908
20
-31.582
30
0
11
40.056
21
-39.6
31
0
0
ARC
8
1
62
1
10
39.67
20
-39.703
30
0
40
0.4
50
-74.99101
51
15.003957
0
LINE
8
1
62
1
10
39.773
20
-40.089
30
0
11
37.33
21
-40.744
31
0
0
LINE
8
1
62
1
10
37.33
20
-40.744
30
0
11
38.364
21
-44.603
31
0
0
ARC
8
1
62
1
10
37.977
20
-44.707
30
0
40
0.4
50
-75.013386
51
15.022133
0
LINE
8
1
62
1
10
38.081
20
-45.093
30
0
11
18.19
21
-50.423
31
0
0
ARC
8
1
62
1
10
18.087
20
-50.036
30
0
40
0.4
50
-89.9694
51
-75.003818
0
LINE
8
1
62
1
10
18.087
20
-50.436
30
0
11
18.087
21
-50.436
31
0
0
LINE
8
1
62
1
10
18.087
20
-50.436
30
0
11
8.125
21
-50.436
31
0
0
ARC
8
1
62
1
10
8.125
20
-48.136
30
0
40
2.3
50
180
51
-90
0
LINE
8
1
62
1
10
5.825
20
-48.136
30
0
11
5.825
21
-41.671
31
0
0
ARC
8
1
62
1
10
8.125
20
-41.671
30
0
40
2.3
50
104.999549
51
179.99924
0
LINE
8
1
62
1
10
7.529
20
-39.449
30
0
11
24.565
21
-34.885
31
0
0
ARC
8
1
62
1
10
24.125
20
-33.243
30
0
40
1.7
50
-74.997261
51
0.001157
0
LINE
8
1
62
1
10
25.825
20
-33.243
30
0
11
25.825
21
-15.429
31
0
0
ARC
8
1
62
1
10
24.125
20
-15.429
30
0
40
1.7
50
0.000707
51
74.998435
0
LINE
8
1
62
1
10
24.565
20
-13.787
30
0
11
7.529
21
-9.222
31
0
0
ARC
8
1
62
1
10
8.125
20
-7
30
0
40
2.3
50
-179.999976
51
-105.000029
0
LINE
8
1
62
1
10
5.825
20
-7
30
0
11
5.825
21
-0.535
31
0
0
ARC
8
1
62
1
10
8.125
20
-0.535
30
0
40
2.3
50
90
51
180
0
LINE
8
1
62
1
10
8.125
20
1.765
30
0
11
57.8
21
1.765
31
0
0
ENDSEC
0
EOF
