999
Generated by Autodesk CAM - http://cam.autodesk.com
0
SECTION
2
HEADER
9
$ACADVER
1
AC1006
9
$ANGBASE
50
0
9
$ANGDIR
70
0
0
ENDSEC
0
SECTION
2
BLOCKS
0
ENDSEC
9
$EXTMIN
10
-136.499
20
-78.143
30
0
9
$EXTMAX
10
106.767
20
78.143
30
15
0
SECTION
2
ENTITIES
0
LINE
8
1
62
1
10
-92.73
20
62.717
30
0
11
-94.361
21
62.717
31
0
0
LINE
8
1
62
1
10
-94.361
20
62.717
30
0
11
-94.361
21
60.213
31
0
0
LINE
8
1
62
1
10
-94.361
20
60.213
30
0
11
-69.786
21
60.213
31
0
0
LINE
8
1
62
1
10
-69.786
20
60.213
30
0
11
-69.786
21
62.717
31
0
0
LINE
8
1
62
1
10
-69.786
20
62.717
30
0
11
-92.73
21
62.717
31
0
0
LINE
8
1
62
1
10
-104.34
20
60.213
30
0
11
-102.709
21
60.213
31
0
0
LINE
8
1
62
1
10
-102.709
20
60.213
30
0
11
-102.709
21
62.717
31
0
0
LINE
8
1
62
1
10
-102.709
20
62.717
30
0
11
-127.284
21
62.717
31
0
0
LINE
8
1
62
1
10
-127.284
20
62.717
30
0
11
-127.284
21
60.213
31
0
0
LINE
8
1
62
1
10
-127.284
20
60.213
30
0
11
-104.34
21
60.213
31
0
0
LINE
8
1
62
1
10
-105.243
20
-60.213
30
0
11
-127.284
21
-60.213
31
0
0
LINE
8
1
62
1
10
-127.284
20
-60.213
30
0
11
-127.284
21
-62.717
31
0
0
LINE
8
1
62
1
10
-127.284
20
-62.717
30
0
11
-102.709
21
-62.717
31
0
0
LINE
8
1
62
1
10
-102.709
20
-62.717
30
0
11
-102.709
21
-60.213
31
0
0
LINE
8
1
62
1
10
-102.709
20
-60.213
30
0
11
-105.243
21
-60.213
31
0
0
LINE
8
1
62
1
10
-92.73
20
-60.213
30
0
11
-94.361
21
-60.213
31
0
0
LINE
8
1
62
1
10
-94.361
20
-60.213
30
0
11
-94.361
21
-62.717
31
0
0
LINE
8
1
62
1
10
-94.361
20
-62.717
30
0
11
-69.786
21
-62.717
31
0
0
LINE
8
1
62
1
10
-69.786
20
-62.717
30
0
11
-69.786
21
-60.213
31
0
0
LINE
8
1
62
1
10
-69.786
20
-60.213
30
0
11
-92.73
21
-60.213
31
0
0
LINE
8
1
62
1
10
-63.501
20
15.038
30
0
11
-63.501
21
-77.83
31
0
0
ARC
8
1
62
1
10
-63.814
20
-77.83
30
0
40
0.313
50
-90
51
0
0
LINE
8
1
62
1
10
-63.814
20
-78.143
30
0
11
-131.286
21
-78.143
31
0
0
ARC
8
1
62
1
10
-131.286
20
-72.93
30
0
40
5.213
50
180
51
-90
0
LINE
8
1
62
1
10
-136.499
20
-72.93
30
0
11
-136.499
21
72.93
31
0
0
ARC
8
1
62
1
10
-131.286
20
72.93
30
0
40
5.213
50
90
51
180
0
LINE
8
1
62
1
10
-131.286
20
78.143
30
0
11
-63.814
21
78.143
31
0
0
ARC
8
1
62
1
10
-63.814
20
77.83
30
0
40
0.313
50
0
51
90
0
LINE
8
1
62
1
10
-63.501
20
77.83
30
0
11
-63.501
21
15.038
31
0
0
LINE
8
1
62
1
10
-42.97
20
60.213
30
0
11
-37.463
21
60.213
31
0
0
LINE
8
1
62
1
10
-37.463
20
60.213
30
0
11
-37.463
21
62.717
31
0
0
LINE
8
1
62
1
10
-37.463
20
62.717
30
0
11
-45.537
21
62.717
31
0
0
LINE
8
1
62
1
10
-45.537
20
62.717
30
0
11
-45.537
21
60.213
31
0
0
LINE
8
1
62
1
10
-45.537
20
60.213
30
0
11
-42.97
21
60.213
31
0
0
LINE
8
1
62
1
10
-40.03
20
-60.213
30
0
11
-45.537
21
-60.213
31
0
0
LINE
8
1
62
1
10
-45.537
20
-60.213
30
0
11
-45.537
21
-62.717
31
0
0
LINE
8
1
62
1
10
-45.537
20
-62.717
30
0
11
-37.463
21
-62.717
31
0
0
LINE
8
1
62
1
10
-37.463
20
-62.717
30
0
11
-37.463
21
-60.213
31
0
0
LINE
8
1
62
1
10
-37.463
20
-60.213
30
0
11
-40.03
21
-60.213
31
0
0
LINE
8
1
62
1
10
-32.643
20
-55.215
30
0
11
-32.643
21
-72.93
31
0
0
ARC
8
1
62
1
10
-37.855
20
-72.93
30
0
40
5.213
50
-90
51
0
0
LINE
8
1
62
1
10
-37.855
20
-78.143
30
0
11
-50.045
21
-78.143
31
0
0
ARC
8
1
62
1
10
-50.045
20
-77.83
30
0
40
0.313
50
180
51
-90
0
LINE
8
1
62
1
10
-50.357
20
-77.83
30
0
11
-50.357
21
77.83
31
0
0
ARC
8
1
62
1
10
-50.045
20
77.83
30
0
40
0.313
50
90
51
180
0
LINE
8
1
62
1
10
-50.045
20
78.143
30
0
11
-37.855
21
78.143
31
0
0
ARC
8
1
62
1
10
-37.855
20
72.93
30
0
40
5.212
50
0
51
90
0
LINE
8
1
62
1
10
-32.643
20
72.93
30
0
11
-32.643
21
-55.215
31
0
0
LINE
8
1
62
1
10
0.213
20
-24.07
30
0
11
0.213
21
-62.93
31
0
0
ARC
8
1
62
1
10
0
20
-62.93
30
0
40
0.213
50
-90
51
0
0
LINE
8
1
62
1
10
0
20
-63.143
30
0
11
-7.5
21
-63.143
31
0
0
ARC
8
1
62
1
10
-7.5
20
-62.93
30
0
40
0.213
50
180
51
-90
0
LINE
8
1
62
1
10
-7.713
20
-62.93
30
0
11
-7.713
21
-60.213
31
0
0
LINE
8
1
62
1
10
-7.713
20
-60.213
30
0
11
-12.288
21
-60.213
31
0
0
LINE
8
1
62
1
10
-12.288
20
-60.213
30
0
11
-12.288
21
-62.93
31
0
0
ARC
8
1
62
1
10
-12.5
20
-62.93
30
0
40
0.213
50
-90
51
0
0
LINE
8
1
62
1
10
-12.5
20
-63.143
30
0
11
-20
21
-63.143
31
0
0
ARC
8
1
62
1
10
-20
20
-62.93
30
0
40
0.212
50
180
51
-90
0
LINE
8
1
62
1
10
-20.212
20
-62.93
30
0
11
-20.212
21
62.93
31
0
0
ARC
8
1
62
1
10
-20
20
62.93
30
0
40
0.213
50
90
51
180
0
LINE
8
1
62
1
10
-20
20
63.143
30
0
11
-12.5
21
63.143
31
0
0
ARC
8
1
62
1
10
-12.5
20
62.93
30
0
40
0.212
50
0
51
90
0
LINE
8
1
62
1
10
-12.288
20
62.93
30
0
11
-12.288
21
60.213
31
0
0
LINE
8
1
62
1
10
-12.288
20
60.213
30
0
11
-7.713
21
60.213
31
0
0
LINE
8
1
62
1
10
-7.713
20
60.213
30
0
11
-7.713
21
62.93
31
0
0
ARC
8
1
62
1
10
-7.5
20
62.93
30
0
40
0.213
50
90
51
180
0
LINE
8
1
62
1
10
-7.5
20
63.143
30
0
11
0
21
63.143
31
0
0
ARC
8
1
62
1
10
0
20
62.93
30
0
40
0.213
50
0
51
90
0
LINE
8
1
62
1
10
0.213
20
62.93
30
0
11
0.213
21
-24.07
31
0
0
LINE
8
1
62
1
10
49.297
20
17.282
30
0
11
50.787
21
17.282
31
0
0
LINE
8
1
62
1
10
50.787
20
17.282
30
0
11
50.787
21
19.788
31
0
0
LINE
8
1
62
1
10
50.787
20
19.788
30
0
11
43.713
21
19.788
31
0
0
LINE
8
1
62
1
10
43.713
20
19.788
30
0
11
43.713
21
17.282
31
0
0
LINE
8
1
62
1
10
43.713
20
17.282
30
0
11
49.297
21
17.282
31
0
0
LINE
8
1
62
1
10
57.703
20
17.282
30
0
11
63.287
21
17.282
31
0
0
LINE
8
1
62
1
10
63.287
20
17.282
30
0
11
63.287
21
19.788
31
0
0
LINE
8
1
62
1
10
63.287
20
19.788
30
0
11
56.213
21
19.788
31
0
0
LINE
8
1
62
1
10
56.213
20
19.788
30
0
11
56.213
21
17.708
31
0
0
LINE
8
1
62
1
10
56.213
20
17.708
30
0
11
56.213
21
17.282
31
0
0
LINE
8
1
62
1
10
56.213
20
17.282
30
0
11
57.703
21
17.282
31
0
0
LINE
8
1
62
1
10
55.252
20
13.323
30
0
11
6.625
21
13.323
31
0
0
ARC
8
1
62
1
10
6.625
20
15.535
30
0
40
2.213
50
180
51
-90
0
LINE
8
1
62
1
10
4.412
20
15.535
30
0
11
4.412
21
22
31
0
0
ARC
8
1
62
1
10
6.625
20
22
30
0
40
2.213
50
105.00057
51
-179.99916
0
LINE
8
1
62
1
10
6.052
20
24.137
30
0
11
23.087
21
28.702
31
0
0
ARC
8
1
62
1
10
22.625
20
30.429
30
0
40
1.787
50
-74.998458
51
-0.000673
0
LINE
8
1
62
1
10
24.412
20
30.429
30
0
11
24.412
21
48.243
31
0
0
ARC
8
1
62
1
10
22.625
20
48.243
30
0
40
1.788
50
-0.001345
51
74.997299
0
LINE
8
1
62
1
10
23.087
20
49.969
30
0
11
6.052
21
54.534
31
0
0
ARC
8
1
62
1
10
6.625
20
56.671
30
0
40
2.212
50
-179.999111
51
-104.999537
0
LINE
8
1
62
1
10
4.412
20
56.671
30
0
11
4.412
21
63.136
31
0
0
ARC
8
1
62
1
10
6.625
20
63.136
30
0
40
2.213
50
90
51
180
0
LINE
8
1
62
1
10
6.625
20
65.349
30
0
11
16.587
21
65.349
31
0
0
LINE
8
1
62
1
10
16.587
20
65.349
30
0
11
16.587
21
65.349
31
0
0
ARC
8
1
62
1
10
16.587
20
65.036
30
0
40
0.312
50
75.015779
51
89.969225
0
LINE
8
1
62
1
10
16.667
20
65.338
30
0
11
36.558
21
60.009
31
0
0
ARC
8
1
62
1
10
36.477
20
59.707
30
0
40
0.312
50
-15.025232
51
75.015141
0
LINE
8
1
62
1
10
36.779
20
59.626
30
0
11
35.722
21
55.682
31
0
0
LINE
8
1
62
1
10
35.722
20
55.682
30
0
11
38.251
21
55.005
31
0
0
ARC
8
1
62
1
10
38.17
20
54.703
30
0
40
0.313
50
-15.004851
51
74.998032
0
LINE
8
1
62
1
10
38.472
20
54.622
30
0
11
36.324
21
46.605
31
0
0
ARC
8
1
62
1
10
36.022
20
46.686
30
0
40
0.313
50
-105.005526
51
-15.0035
0
LINE
8
1
62
1
10
35.941
20
46.384
30
0
11
33.413
21
47.062
31
0
0
LINE
8
1
62
1
10
33.413
20
47.062
30
0
11
32.385
21
43.227
31
0
0
LINE
8
1
62
1
10
32.385
20
43.227
30
0
11
40.465
21
41.062
31
0
0
LINE
8
1
62
1
10
40.465
20
41.062
30
0
11
41.142
21
43.59
31
0
0
ARC
8
1
62
1
10
41.444
20
43.509
30
0
40
0.313
50
74.995149
51
164.996681
0
LINE
8
1
62
1
10
41.525
20
43.811
30
0
11
65.48
21
37.392
31
0
0
ARC
8
1
62
1
10
65.399
20
37.09
30
0
40
0.313
50
-15.004175
51
74.996681
0
LINE
8
1
62
1
10
65.701
20
37.01
30
0
11
65.024
21
34.481
31
0
0
LINE
8
1
62
1
10
65.024
20
34.481
30
0
11
72.266
21
32.541
31
0
0
LINE
8
1
62
1
10
72.266
20
32.541
30
0
11
72.943
21
35.069
31
0
0
ARC
8
1
62
1
10
73.245
20
34.988
30
0
40
0.312
50
75.039388
51
164.993749
0
LINE
8
1
62
1
10
73.326
20
35.29
30
0
11
73.326
21
35.29
31
0
0
LINE
8
1
62
1
10
73.326
20
35.29
30
0
11
97.281
21
28.871
31
0
0
ARC
8
1
62
1
10
97.2
20
28.569
30
0
40
0.313
50
-15.004875
51
74.997942
0
LINE
8
1
62
1
10
97.502
20
28.489
30
0
11
96.825
21
25.96
31
0
0
LINE
8
1
62
1
10
96.825
20
25.96
30
0
11
105.11
21
23.74
31
0
0
ARC
8
1
62
1
10
105.055
20
23.535
30
0
40
0.212
50
-15.004695
51
74.999678
0
LINE
8
1
62
1
10
105.26
20
23.48
30
0
11
102.977
21
14.962
31
0
0
ARC
8
1
62
1
10
100.84
20
15.535
30
0
40
2.212
50
-89.984389
51
-14.990406
0
LINE
8
1
62
1
10
100.841
20
13.323
30
0
11
55.252
21
13.323
31
0
0
LINE
8
1
62
1
10
49.92
20
-2.283
30
0
11
45.213
21
-2.283
31
0
0
LINE
8
1
62
1
10
45.213
20
-2.283
30
0
11
45.213
21
-4.787
31
0
0
LINE
8
1
62
1
10
45.213
20
-4.787
30
0
11
52.287
21
-4.787
31
0
0
LINE
8
1
62
1
10
52.287
20
-4.787
30
0
11
52.287
21
-2.283
31
0
0
LINE
8
1
62
1
10
52.287
20
-2.283
30
0
11
49.92
21
-2.283
31
0
0
LINE
8
1
62
1
10
59.177
20
-2.283
30
0
11
57.713
21
-2.283
31
0
0
LINE
8
1
62
1
10
57.713
20
-2.283
30
0
11
57.713
21
-4.787
31
0
0
LINE
8
1
62
1
10
57.713
20
-4.787
30
0
11
64.787
21
-4.787
31
0
0
LINE
8
1
62
1
10
64.787
20
-4.787
30
0
11
64.787
21
-2.283
31
0
0
LINE
8
1
62
1
10
64.787
20
-2.283
30
0
11
59.177
21
-2.283
31
0
0
LINE
8
1
62
1
10
57.713
20
1.678
30
0
11
102.341
21
1.678
31
0
0
ARC
8
1
62
1
10
102.34
20
-0.535
30
0
40
2.212
50
14.991583
51
89.98597
0
LINE
8
1
62
1
10
104.477
20
0.038
30
0
11
106.76
21
-8.48
31
0
0
ARC
8
1
62
1
10
106.555
20
-8.535
30
0
40
0.213
50
-74.999745
51
15.004447
0
LINE
8
1
62
1
10
106.61
20
-8.74
30
0
11
98.325
21
-10.96
31
0
0
LINE
8
1
62
1
10
98.325
20
-10.96
30
0
11
99.002
21
-13.489
31
0
0
ARC
8
1
62
1
10
98.7
20
-13.569
30
0
40
0.313
50
-74.99213
51
15.004875
0
LINE
8
1
62
1
10
98.781
20
-13.871
30
0
11
74.826
21
-20.29
31
0
0
LINE
8
1
62
1
10
74.826
20
-20.29
30
0
11
74.826
21
-20.29
31
0
0
ARC
8
1
62
1
10
74.745
20
-19.988
30
0
40
0.312
50
-164.983905
51
-75.039298
0
LINE
8
1
62
1
10
74.443
20
-20.069
30
0
11
73.766
21
-17.541
31
0
0
LINE
8
1
62
1
10
73.766
20
-17.541
30
0
11
66.524
21
-19.481
31
0
0
LINE
8
1
62
1
10
66.524
20
-19.481
30
0
11
67.201
21
-22.01
31
0
0
ARC
8
1
62
1
10
66.899
20
-22.09
30
0
40
0.313
50
-74.990824
51
15.004513
0
LINE
8
1
62
1
10
66.98
20
-22.392
30
0
11
43.025
21
-28.811
31
0
0
ARC
8
1
62
1
10
42.944
20
-28.509
30
0
40
0.313
50
-164.990915
51
-74.995149
0
LINE
8
1
62
1
10
42.642
20
-28.59
30
0
11
41.965
21
-26.062
31
0
0
LINE
8
1
62
1
10
41.965
20
-26.062
30
0
11
33.885
21
-28.227
31
0
0
LINE
8
1
62
1
10
33.885
20
-28.227
30
0
11
34.913
21
-32.062
31
0
0
LINE
8
1
62
1
10
34.913
20
-32.062
30
0
11
37.441
21
-31.384
31
0
0
ARC
8
1
62
1
10
37.522
20
-31.686
30
0
40
0.313
50
15.008928
51
105.005617
0
LINE
8
1
62
1
10
37.824
20
-31.605
30
0
11
39.972
21
-39.622
31
0
0
ARC
8
1
62
1
10
39.67
20
-39.703
30
0
40
0.313
50
-74.990915
51
15.004851
0
LINE
8
1
62
1
10
39.751
20
-40.005
30
0
11
37.222
21
-40.682
31
0
0
LINE
8
1
62
1
10
37.222
20
-40.682
30
0
11
38.279
21
-44.626
31
0
0
ARC
8
1
62
1
10
37.977
20
-44.707
30
0
40
0.312
50
-75.015141
51
15.025232
0
LINE
8
1
62
1
10
38.058
20
-45.009
30
0
11
18.167
21
-50.338
31
0
0
ARC
8
1
62
1
10
18.087
20
-50.036
30
0
40
0.312
50
-89.969225
51
-75.005102
0
LINE
8
1
62
1
10
18.087
20
-50.349
30
0
11
18.087
21
-50.349
31
0
0
LINE
8
1
62
1
10
18.087
20
-50.349
30
0
11
8.125
21
-50.349
31
0
0
ARC
8
1
62
1
10
8.125
20
-48.136
30
0
40
2.213
50
180
51
-90
0
LINE
8
1
62
1
10
5.912
20
-48.136
30
0
11
5.912
21
-41.671
31
0
0
ARC
8
1
62
1
10
8.125
20
-41.671
30
0
40
2.212
50
104.999537
51
179.99921
0
LINE
8
1
62
1
10
7.552
20
-39.534
30
0
11
24.587
21
-34.969
31
0
0
ARC
8
1
62
1
10
24.125
20
-33.243
30
0
40
1.788
50
-74.997299
51
0.001223
0
LINE
8
1
62
1
10
25.912
20
-33.243
30
0
11
25.912
21
-15.429
31
0
0
ARC
8
1
62
1
10
24.125
20
-15.429
30
0
40
1.787
50
0.000673
51
74.998466
0
LINE
8
1
62
1
10
24.587
20
-13.702
30
0
11
7.552
21
-9.137
31
0
0
ARC
8
1
62
1
10
8.125
20
-7
30
0
40
2.212
50
-179.999975
51
-105.000042
0
LINE
8
1
62
1
10
5.912
20
-7
30
0
11
5.912
21
-0.535
31
0
0
ARC
8
1
62
1
10
8.125
20
-0.535
30
0
40
2.213
50
90
51
180
0
LINE
8
1
62
1
10
8.125
20
1.678
30
0
11
57.713
21
1.678
31
0
0
ENDSEC
0
EOF
