999
Generated by Autodesk CAM - http://cam.autodesk.com
0
SECTION
2
HEADER
9
$ACADVER
1
AC1006
9
$ANGBASE
50
0
9
$ANGDIR
70
0
0
ENDSEC
0
SECTION
2
BLOCKS
0
ENDSEC
9
$EXTMIN
10
-143.7
20
-73.721
30
0
9
$EXTMAX
10
91.3
20
95.907
30
15
0
SECTION
2
ENTITIES
0
LINE
8
1
62
1
10
-8.966
20
60.047
30
0
11
-8.966
21
72.16
31
0
0
ARC
8
1
62
1
10
-8.666
20
72.16
30
0
40
0.3
50
112.387456
51
180
0
LINE
8
1
62
1
10
-8.78
20
72.437
30
0
11
-7.134
21
73.115
31
0
0
LINE
8
1
62
1
10
-7.134
20
73.115
30
0
11
-6.318
21
73.462
31
0
0
LINE
8
1
62
1
10
-6.318
20
73.462
30
0
11
-5.509
21
73.818
31
0
0
LINE
8
1
62
1
10
-5.509
20
73.818
30
0
11
-4.708
21
74.187
31
0
0
LINE
8
1
62
1
10
-4.708
20
74.187
30
0
11
-3.919
21
74.572
31
0
0
LINE
8
1
62
1
10
-3.919
20
74.572
30
0
11
-3.141
21
74.977
31
0
0
LINE
8
1
62
1
10
-3.141
20
74.977
30
0
11
-2.377
21
75.404
31
0
0
LINE
8
1
62
1
10
-2.377
20
75.404
30
0
11
-1.625
21
75.855
31
0
0
LINE
8
1
62
1
10
-1.625
20
75.855
30
0
11
-0.883
21
76.325
31
0
0
LINE
8
1
62
1
10
-0.883
20
76.325
30
0
11
-0.149
21
76.814
31
0
0
LINE
8
1
62
1
10
-0.149
20
76.814
30
0
11
0.576
21
77.316
31
0
0
LINE
8
1
62
1
10
0.576
20
77.316
30
0
11
2.016
21
78.355
31
0
0
LINE
8
1
62
1
10
2.016
20
78.355
30
0
11
3.435
21
79.412
31
0
0
LINE
8
1
62
1
10
3.435
20
79.412
30
0
11
4.88
21
80.673
31
0
0
LINE
8
1
62
1
10
4.88
20
80.673
30
0
11
5.591
21
81.314
31
0
0
LINE
8
1
62
1
10
5.591
20
81.314
30
0
11
6.287
21
81.965
31
0
0
LINE
8
1
62
1
10
6.287
20
81.965
30
0
11
6.961
21
82.629
31
0
0
LINE
8
1
62
1
10
6.961
20
82.629
30
0
11
7.611
21
83.311
31
0
0
LINE
8
1
62
1
10
7.611
20
83.311
30
0
11
7.923
21
83.658
31
0
0
LINE
8
1
62
1
10
7.923
20
83.658
30
0
11
8.228
21
84.012
31
0
0
LINE
8
1
62
1
10
8.228
20
84.012
30
0
11
8.524
21
84.371
31
0
0
LINE
8
1
62
1
10
8.524
20
84.371
30
0
11
8.81
21
84.737
31
0
0
LINE
8
1
62
1
10
8.81
20
84.737
30
0
11
9.087
21
85.11
31
0
0
LINE
8
1
62
1
10
9.087
20
85.11
30
0
11
9.354
21
85.49
31
0
0
LINE
8
1
62
1
10
9.354
20
85.49
30
0
11
9.612
21
85.878
31
0
0
LINE
8
1
62
1
10
9.612
20
85.878
30
0
11
9.861
21
86.271
31
0
0
LINE
8
1
62
1
10
9.861
20
86.271
30
0
11
10.34
21
87.08
31
0
0
LINE
8
1
62
1
10
10.34
20
87.08
30
0
11
10.792
21
87.909
31
0
0
LINE
8
1
62
1
10
10.792
20
87.909
30
0
11
11.225
21
88.755
31
0
0
LINE
8
1
62
1
10
11.225
20
88.755
30
0
11
11.642
21
89.616
31
0
0
LINE
8
1
62
1
10
11.642
20
89.616
30
0
11
12.453
21
91.363
31
0
0
ARC
8
1
62
1
10
12.725
20
91.237
30
0
40
0.3
50
90
51
155.091567
0
LINE
8
1
62
1
10
12.725
20
91.537
30
0
11
24.449
21
91.537
31
0
0
ARC
8
1
62
1
10
24.449
20
91.237
30
0
40
0.3
50
0
51
90
0
LINE
8
1
62
1
10
24.749
20
91.237
30
0
11
24.749
21
15.545
31
0
0
ARC
8
1
62
1
10
24.449
20
15.545
30
0
40
0.3
50
-90
51
0
0
LINE
8
1
62
1
10
24.449
20
15.245
30
0
11
10
21
15.245
31
0
0
ARC
8
1
62
1
10
10
20
15.545
30
0
40
0.3
50
180
51
-90
0
LINE
8
1
62
1
10
9.7
20
15.545
30
0
11
9.7
21
69.362
31
0
0
LINE
8
1
62
1
10
9.7
20
69.362
30
0
11
8.08
21
68.022
31
0
0
LINE
8
1
62
1
10
8.08
20
68.022
30
0
11
8.077
21
68.02
31
0
0
LINE
8
1
62
1
10
8.077
20
68.02
30
0
11
7.013
21
67.161
31
0
0
LINE
8
1
62
1
10
7.013
20
67.161
30
0
11
7.009
21
67.159
31
0
0
LINE
8
1
62
1
10
7.009
20
67.159
30
0
11
5.934
21
66.318
31
0
0
LINE
8
1
62
1
10
5.934
20
66.318
30
0
11
5.929
21
66.315
31
0
0
LINE
8
1
62
1
10
5.929
20
66.315
30
0
11
4.84
21
65.499
31
0
0
LINE
8
1
62
1
10
4.84
20
65.499
30
0
11
4.834
21
65.495
31
0
0
LINE
8
1
62
1
10
4.834
20
65.495
30
0
11
3.726
21
64.709
31
0
0
LINE
8
1
62
1
10
3.726
20
64.709
30
0
11
3.721
21
64.705
31
0
0
LINE
8
1
62
1
10
3.721
20
64.705
30
0
11
3.159
21
64.326
31
0
0
LINE
8
1
62
1
10
3.159
20
64.326
30
0
11
3.155
21
64.323
31
0
0
LINE
8
1
62
1
10
3.155
20
64.323
30
0
11
2.588
21
63.954
31
0
0
LINE
8
1
62
1
10
2.588
20
63.954
30
0
11
2.583
21
63.951
31
0
0
LINE
8
1
62
1
10
2.583
20
63.951
30
0
11
2.01
21
63.592
31
0
0
LINE
8
1
62
1
10
2.01
20
63.592
30
0
11
2.005
21
63.589
31
0
0
LINE
8
1
62
1
10
2.005
20
63.589
30
0
11
1.424
21
63.241
31
0
0
LINE
8
1
62
1
10
1.424
20
63.241
30
0
11
1.419
21
63.238
31
0
0
LINE
8
1
62
1
10
1.419
20
63.238
30
0
11
0.832
21
62.902
31
0
0
LINE
8
1
62
1
10
0.832
20
62.902
30
0
11
0.827
21
62.9
31
0
0
LINE
8
1
62
1
10
0.827
20
62.9
30
0
11
0.233
21
62.575
31
0
0
LINE
8
1
62
1
10
0.233
20
62.575
30
0
11
0.229
21
62.572
31
0
0
LINE
8
1
62
1
10
0.229
20
62.572
30
0
11
-0.371
21
62.258
31
0
0
LINE
8
1
62
1
10
-0.371
20
62.258
30
0
11
-0.375
21
62.256
31
0
0
LINE
8
1
62
1
10
-0.375
20
62.256
30
0
11
-0.981
21
61.951
31
0
0
LINE
8
1
62
1
10
-0.981
20
61.951
30
0
11
-0.987
21
61.948
31
0
0
LINE
8
1
62
1
10
-0.987
20
61.948
30
0
11
-2.213
21
61.365
31
0
0
LINE
8
1
62
1
10
-2.213
20
61.365
30
0
11
-2.22
21
61.362
31
0
0
LINE
8
1
62
1
10
-2.22
20
61.362
30
0
11
-3.464
21
60.809
31
0
0
LINE
8
1
62
1
10
-3.464
20
60.809
30
0
11
-3.469
21
60.806
31
0
0
LINE
8
1
62
1
10
-3.469
20
60.806
30
0
11
-4.727
21
60.277
31
0
0
LINE
8
1
62
1
10
-4.727
20
60.277
30
0
11
-4.731
21
60.275
31
0
0
LINE
8
1
62
1
10
-4.731
20
60.275
30
0
11
-6
21
59.763
31
0
0
LINE
8
1
62
1
10
-6
20
59.763
30
0
11
-6.003
21
59.762
31
0
0
LINE
8
1
62
1
10
-6.003
20
59.762
30
0
11
-8.557
21
58.768
31
0
0
ARC
8
1
62
1
10
-8.666
20
59.047
30
0
40
0.3
50
180
51
-68.735763
0
LINE
8
1
62
1
10
-8.966
20
59.047
30
0
11
-8.966
21
60.047
31
0
0
LINE
8
1
62
1
10
-16.3
20
44.16
30
0
11
-16.3
21
-55.606
31
0
0
ARC
8
1
62
1
10
-16.6
20
-55.606
30
0
40
0.3
50
-90
51
0
0
LINE
8
1
62
1
10
-16.6
20
-55.907
30
0
11
-143.4
21
-55.907
31
0
0
ARC
8
1
62
1
10
-143.4
20
-55.606
30
0
40
0.3
50
180
51
-90
0
LINE
8
1
62
1
10
-143.7
20
-55.606
30
0
11
-143.7
21
95.606
31
0
0
ARC
8
1
62
1
10
-143.4
20
95.606
30
0
40
0.3
50
90
51
180
0
LINE
8
1
62
1
10
-143.4
20
95.907
30
0
11
-16.6
21
95.907
31
0
0
ARC
8
1
62
1
10
-16.6
20
95.606
30
0
40
0.3
50
0
51
90
0
LINE
8
1
62
1
10
-16.3
20
95.606
30
0
11
-16.3
21
44.16
31
0
0
LINE
8
1
62
1
10
3.132
20
0.386
30
0
11
3.642
21
0.611
31
0
0
LINE
8
1
62
1
10
3.642
20
0.611
30
0
11
3.649
21
0.614
31
0
0
LINE
8
1
62
1
10
3.649
20
0.614
30
0
11
4.164
21
0.827
31
0
0
LINE
8
1
62
1
10
4.164
20
0.827
30
0
11
4.171
21
0.83
31
0
0
LINE
8
1
62
1
10
4.171
20
0.83
30
0
11
4.69
21
1.028
31
0
0
LINE
8
1
62
1
10
4.69
20
1.028
30
0
11
4.698
21
1.031
31
0
0
LINE
8
1
62
1
10
4.698
20
1.031
30
0
11
5.222
21
1.213
31
0
0
LINE
8
1
62
1
10
5.222
20
1.213
30
0
11
5.231
21
1.216
31
0
0
LINE
8
1
62
1
10
5.231
20
1.216
30
0
11
5.76
21
1.383
31
0
0
LINE
8
1
62
1
10
5.76
20
1.383
30
0
11
5.768
21
1.385
31
0
0
LINE
8
1
62
1
10
5.768
20
1.385
30
0
11
6.302
21
1.536
31
0
0
LINE
8
1
62
1
10
6.302
20
1.536
30
0
11
6.311
21
1.538
31
0
0
LINE
8
1
62
1
10
6.311
20
1.538
30
0
11
6.849
21
1.674
31
0
0
LINE
8
1
62
1
10
6.849
20
1.674
30
0
11
6.857
21
1.676
31
0
0
LINE
8
1
62
1
10
6.857
20
1.676
30
0
11
7.4
21
1.797
31
0
0
LINE
8
1
62
1
10
7.4
20
1.797
30
0
11
7.407
21
1.799
31
0
0
LINE
8
1
62
1
10
7.407
20
1.799
30
0
11
7.954
21
1.908
31
0
0
LINE
8
1
62
1
10
7.954
20
1.908
30
0
11
7.961
21
1.909
31
0
0
LINE
8
1
62
1
10
7.961
20
1.909
30
0
11
8.512
21
2.006
31
0
0
LINE
8
1
62
1
10
8.512
20
2.006
30
0
11
8.518
21
2.007
31
0
0
LINE
8
1
62
1
10
8.518
20
2.007
30
0
11
9.072
21
2.092
31
0
0
LINE
8
1
62
1
10
9.072
20
2.092
30
0
11
9.08
21
2.093
31
0
0
LINE
8
1
62
1
10
9.08
20
2.093
30
0
11
10.198
21
2.236
31
0
0
LINE
8
1
62
1
10
10.198
20
2.236
30
0
11
10.206
21
2.237
31
0
0
LINE
8
1
62
1
10
10.206
20
2.237
30
0
11
11.334
21
2.348
31
0
0
LINE
8
1
62
1
10
11.334
20
2.348
30
0
11
11.341
21
2.349
31
0
0
LINE
8
1
62
1
10
11.341
20
2.349
30
0
11
12.476
21
2.436
31
0
0
LINE
8
1
62
1
10
12.476
20
2.436
30
0
11
12.481
21
2.436
31
0
0
LINE
8
1
62
1
10
12.481
20
2.436
30
0
11
14.765
21
2.57
31
0
0
ARC
8
1
62
1
10
14.782
20
2.271
30
0
40
0.3
50
86.7573
51
93.361469
0
LINE
8
1
62
1
10
14.799
20
2.57
30
0
11
17.211
21
2.434
31
0
0
LINE
8
1
62
1
10
17.211
20
2.434
30
0
11
17.217
21
2.433
31
0
0
LINE
8
1
62
1
10
17.217
20
2.433
30
0
11
18.415
21
2.341
31
0
0
LINE
8
1
62
1
10
18.415
20
2.341
30
0
11
18.422
21
2.341
31
0
0
LINE
8
1
62
1
10
18.422
20
2.341
30
0
11
19.609
21
2.221
31
0
0
LINE
8
1
62
1
10
19.609
20
2.221
30
0
11
19.616
21
2.22
31
0
0
LINE
8
1
62
1
10
19.616
20
2.22
30
0
11
20.205
21
2.146
31
0
0
LINE
8
1
62
1
10
20.205
20
2.146
30
0
11
20.211
21
2.145
31
0
0
LINE
8
1
62
1
10
20.211
20
2.145
30
0
11
20.796
21
2.061
31
0
0
LINE
8
1
62
1
10
20.796
20
2.061
30
0
11
20.802
21
2.06
31
0
0
LINE
8
1
62
1
10
20.802
20
2.06
30
0
11
21.383
21
1.964
31
0
0
LINE
8
1
62
1
10
21.383
20
1.964
30
0
11
21.39
21
1.963
31
0
0
LINE
8
1
62
1
10
21.39
20
1.963
30
0
11
21.966
21
1.854
31
0
0
LINE
8
1
62
1
10
21.966
20
1.854
30
0
11
21.974
21
1.853
31
0
0
LINE
8
1
62
1
10
21.974
20
1.853
30
0
11
22.545
21
1.73
31
0
0
LINE
8
1
62
1
10
22.545
20
1.73
30
0
11
22.553
21
1.728
31
0
0
LINE
8
1
62
1
10
22.553
20
1.728
30
0
11
23.119
21
1.59
31
0
0
LINE
8
1
62
1
10
23.119
20
1.59
30
0
11
23.127
21
1.588
31
0
0
LINE
8
1
62
1
10
23.127
20
1.588
30
0
11
23.687
21
1.433
31
0
0
LINE
8
1
62
1
10
23.687
20
1.433
30
0
11
23.696
21
1.43
31
0
0
LINE
8
1
62
1
10
23.696
20
1.43
30
0
11
24.25
21
1.258
31
0
0
ARC
8
1
62
1
10
24.161
20
0.972
30
0
40
0.3
50
70.732962
51
72.710683
0
LINE
8
1
62
1
10
24.26
20
1.255
30
0
11
24.807
21
1.064
31
0
0
ARC
8
1
62
1
10
24.708
20
0.78
30
0
40
0.3
50
68.670438
51
70.732962
0
LINE
8
1
62
1
10
24.817
20
1.06
30
0
11
25.357
21
0.849
31
0
0
ARC
8
1
62
1
10
25.247
20
0.57
30
0
40
0.3
50
66.698819
51
68.670107
0
LINE
8
1
62
1
10
25.366
20
0.845
30
0
11
25.899
21
0.616
31
0
0
LINE
8
1
62
1
10
25.899
20
0.616
30
0
11
25.908
21
0.612
31
0
0
LINE
8
1
62
1
10
25.908
20
0.612
30
0
11
26.435
21
0.365
31
0
0
LINE
8
1
62
1
10
26.435
20
0.365
30
0
11
26.443
21
0.361
31
0
0
LINE
8
1
62
1
10
26.443
20
0.361
30
0
11
26.964
21
0.098
31
0
0
LINE
8
1
62
1
10
26.964
20
0.098
30
0
11
26.971
21
0.094
31
0
0
LINE
8
1
62
1
10
26.971
20
0.094
30
0
11
27.487
21
-0.184
31
0
0
LINE
8
1
62
1
10
27.487
20
-0.184
30
0
11
27.493
21
-0.188
31
0
0
LINE
8
1
62
1
10
27.493
20
-0.188
30
0
11
28.004
21
-0.479
31
0
0
LINE
8
1
62
1
10
28.004
20
-0.479
30
0
11
28.009
21
-0.482
31
0
0
LINE
8
1
62
1
10
28.009
20
-0.482
30
0
11
28.516
21
-0.786
31
0
0
LINE
8
1
62
1
10
28.516
20
-0.786
30
0
11
28.523
21
-0.79
31
0
0
LINE
8
1
62
1
10
28.523
20
-0.79
30
0
11
29.525
21
-1.428
31
0
0
LINE
8
1
62
1
10
29.525
20
-1.428
30
0
11
29.532
21
-1.433
31
0
0
LINE
8
1
62
1
10
29.532
20
-1.433
30
0
11
30.523
21
-2.103
31
0
0
LINE
8
1
62
1
10
30.523
20
-2.103
30
0
11
30.527
21
-2.106
31
0
0
LINE
8
1
62
1
10
30.527
20
-2.106
30
0
11
31.51
21
-2.798
31
0
0
LINE
8
1
62
1
10
31.51
20
-2.798
30
0
11
31.512
21
-2.799
31
0
0
LINE
8
1
62
1
10
31.512
20
-2.799
30
0
11
32.491
21
-3.502
31
0
0
ARC
8
1
62
1
10
32.317
20
-3.746
30
0
40
0.3
50
40.957114
51
54.338956
0
LINE
8
1
62
1
10
32.543
20
-3.549
30
0
11
33.243
21
-4.355
31
0
0
LINE
8
1
62
1
10
33.243
20
-4.355
30
0
11
33.245
21
-4.357
31
0
0
LINE
8
1
62
1
10
33.245
20
-4.357
30
0
11
33.935
21
-5.168
31
0
0
LINE
8
1
62
1
10
33.935
20
-5.168
30
0
11
33.939
21
-5.172
31
0
0
LINE
8
1
62
1
10
33.939
20
-5.172
30
0
11
34.61
21
-5.991
31
0
0
LINE
8
1
62
1
10
34.61
20
-5.991
30
0
11
34.615
21
-5.997
31
0
0
LINE
8
1
62
1
10
34.615
20
-5.997
30
0
11
35.258
21
-6.828
31
0
0
LINE
8
1
62
1
10
35.258
20
-6.828
30
0
11
35.263
21
-6.835
31
0
0
LINE
8
1
62
1
10
35.263
20
-6.835
30
0
11
35.571
21
-7.256
31
0
0
LINE
8
1
62
1
10
35.571
20
-7.256
30
0
11
35.575
21
-7.261
31
0
0
LINE
8
1
62
1
10
35.575
20
-7.261
30
0
11
35.872
21
-7.687
31
0
0
LINE
8
1
62
1
10
35.872
20
-7.687
30
0
11
35.876
21
-7.693
31
0
0
LINE
8
1
62
1
10
35.876
20
-7.693
30
0
11
36.161
21
-8.124
31
0
0
LINE
8
1
62
1
10
36.161
20
-8.124
30
0
11
36.166
21
-8.131
31
0
0
LINE
8
1
62
1
10
36.166
20
-8.131
30
0
11
36.438
21
-8.567
31
0
0
LINE
8
1
62
1
10
36.438
20
-8.567
30
0
11
36.442
21
-8.575
31
0
0
LINE
8
1
62
1
10
36.442
20
-8.575
30
0
11
36.7
21
-9.017
31
0
0
LINE
8
1
62
1
10
36.7
20
-9.017
30
0
11
36.705
21
-9.026
31
0
0
LINE
8
1
62
1
10
36.705
20
-9.026
30
0
11
36.948
21
-9.475
31
0
0
ARC
8
1
62
1
10
36.683
20
-9.618
30
0
40
0.3
50
26.328182
51
28.354898
0
LINE
8
1
62
1
10
36.952
20
-9.485
30
0
11
37.178
21
-9.941
31
0
0
ARC
8
1
62
1
10
36.909
20
-10.074
30
0
40
0.3
50
24.144631
51
26.328668
0
LINE
8
1
62
1
10
37.183
20
-9.951
30
0
11
37.391
21
-10.415
31
0
0
ARC
8
1
62
1
10
37.117
20
-10.538
30
0
40
0.3
50
21.882887
51
24.144166
0
LINE
8
1
62
1
10
37.396
20
-10.426
30
0
11
37.585
21
-10.898
31
0
0
ARC
8
1
62
1
10
37.307
20
-11.01
30
0
40
0.3
50
19.726503
51
21.883159
0
LINE
8
1
62
1
10
37.589
20
-10.908
30
0
11
37.761
21
-11.388
31
0
0
ARC
8
1
62
1
10
37.479
20
-11.489
30
0
40
0.3
50
17.721759
51
19.726503
0
LINE
8
1
62
1
10
37.764
20
-11.398
30
0
11
37.92
21
-11.884
31
0
0
LINE
8
1
62
1
10
37.92
20
-11.884
30
0
11
37.923
21
-11.893
31
0
0
LINE
8
1
62
1
10
37.923
20
-11.893
30
0
11
38.063
21
-12.386
31
0
0
LINE
8
1
62
1
10
38.063
20
-12.386
30
0
11
38.065
21
-12.395
31
0
0
LINE
8
1
62
1
10
38.065
20
-12.395
30
0
11
38.191
21
-12.894
31
0
0
LINE
8
1
62
1
10
38.191
20
-12.894
30
0
11
38.193
21
-12.901
31
0
0
LINE
8
1
62
1
10
38.193
20
-12.901
30
0
11
38.306
21
-13.406
31
0
0
LINE
8
1
62
1
10
38.306
20
-13.406
30
0
11
38.308
21
-13.413
31
0
0
LINE
8
1
62
1
10
38.308
20
-13.413
30
0
11
38.409
21
-13.922
31
0
0
LINE
8
1
62
1
10
38.409
20
-13.922
30
0
11
38.41
21
-13.929
31
0
0
LINE
8
1
62
1
10
38.41
20
-13.929
30
0
11
38.501
21
-14.443
31
0
0
LINE
8
1
62
1
10
38.501
20
-14.443
30
0
11
38.502
21
-14.451
31
0
0
LINE
8
1
62
1
10
38.502
20
-14.451
30
0
11
38.657
21
-15.49
31
0
0
LINE
8
1
62
1
10
38.657
20
-15.49
30
0
11
38.658
21
-15.499
31
0
0
LINE
8
1
62
1
10
38.658
20
-15.499
30
0
11
38.785
21
-16.55
31
0
0
LINE
8
1
62
1
10
38.785
20
-16.55
30
0
11
38.785
21
-16.556
31
0
0
LINE
8
1
62
1
10
38.785
20
-16.556
30
0
11
38.893
21
-17.615
31
0
0
LINE
8
1
62
1
10
38.893
20
-17.615
30
0
11
38.893
21
-17.618
31
0
0
LINE
8
1
62
1
10
38.893
20
-17.618
30
0
11
38.992
21
-18.681
31
0
0
ARC
8
1
62
1
10
38.693
20
-18.709
30
0
40
0.3
50
-2.697739
51
5.280341
0
LINE
8
1
62
1
10
38.992
20
-18.723
30
0
11
38.934
21
-19.967
31
0
0
LINE
8
1
62
1
10
38.934
20
-19.967
30
0
11
38.934
21
-19.972
31
0
0
LINE
8
1
62
1
10
38.934
20
-19.972
30
0
11
38.853
21
-21.212
31
0
0
LINE
8
1
62
1
10
38.853
20
-21.212
30
0
11
38.853
21
-21.219
31
0
0
LINE
8
1
62
1
10
38.853
20
-21.219
30
0
11
38.798
21
-21.836
31
0
0
LINE
8
1
62
1
10
38.798
20
-21.836
30
0
11
38.797
21
-21.842
31
0
0
LINE
8
1
62
1
10
38.797
20
-21.842
30
0
11
38.729
21
-22.457
31
0
0
LINE
8
1
62
1
10
38.729
20
-22.457
30
0
11
38.728
21
-22.465
31
0
0
LINE
8
1
62
1
10
38.728
20
-22.465
30
0
11
38.644
21
-23.076
31
0
0
LINE
8
1
62
1
10
38.644
20
-23.076
30
0
11
38.642
21
-23.086
31
0
0
LINE
8
1
62
1
10
38.642
20
-23.086
30
0
11
38.539
21
-23.693
31
0
0
ARC
8
1
62
1
10
38.243
20
-23.643
30
0
40
0.3
50
-11.612772
51
-9.654919
0
LINE
8
1
62
1
10
38.537
20
-23.703
30
0
11
38.413
21
-24.307
31
0
0
LINE
8
1
62
1
10
38.413
20
-24.307
30
0
11
38.411
21
-24.317
31
0
0
LINE
8
1
62
1
10
38.411
20
-24.317
30
0
11
38.267
21
-24.917
31
0
0
LINE
8
1
62
1
10
38.267
20
-24.917
30
0
11
38.265
21
-24.925
31
0
0
LINE
8
1
62
1
10
38.265
20
-24.925
30
0
11
38.106
21
-25.522
31
0
0
LINE
8
1
62
1
10
38.106
20
-25.522
30
0
11
38.104
21
-25.528
31
0
0
LINE
8
1
62
1
10
38.104
20
-25.528
30
0
11
37.931
21
-26.123
31
0
0
LINE
8
1
62
1
10
37.931
20
-26.123
30
0
11
37.928
21
-26.13
31
0
0
LINE
8
1
62
1
10
37.928
20
-26.13
30
0
11
37.552
21
-27.313
31
0
0
LINE
8
1
62
1
10
37.552
20
-27.313
30
0
11
37.55
21
-27.319
31
0
0
LINE
8
1
62
1
10
37.55
20
-27.319
30
0
11
37.152
21
-28.498
31
0
0
ARC
8
1
62
1
10
36.867
20
-28.402
30
0
40
0.3
50
-24.82946
51
-18.669601
0
LINE
8
1
62
1
10
37.14
20
-28.528
30
0
11
36.546
21
-29.81
31
0
0
LINE
8
1
62
1
10
36.546
20
-29.81
30
0
11
36.545
21
-29.814
31
0
0
LINE
8
1
62
1
10
36.545
20
-29.814
30
0
11
35.934
21
-31.086
31
0
0
LINE
8
1
62
1
10
35.934
20
-31.086
30
0
11
35.931
21
-31.091
31
0
0
LINE
8
1
62
1
10
35.931
20
-31.091
30
0
11
35.614
21
-31.72
31
0
0
LINE
8
1
62
1
10
35.614
20
-31.72
30
0
11
35.612
21
-31.725
31
0
0
LINE
8
1
62
1
10
35.612
20
-31.725
30
0
11
35.284
21
-32.347
31
0
0
LINE
8
1
62
1
10
35.284
20
-32.347
30
0
11
35.281
21
-32.353
31
0
0
LINE
8
1
62
1
10
35.281
20
-32.353
30
0
11
34.939
21
-32.968
31
0
0
LINE
8
1
62
1
10
34.939
20
-32.968
30
0
11
34.936
21
-32.974
31
0
0
LINE
8
1
62
1
10
34.936
20
-32.974
30
0
11
34.579
21
-33.58
31
0
0
LINE
8
1
62
1
10
34.579
20
-33.58
30
0
11
34.575
21
-33.586
31
0
0
LINE
8
1
62
1
10
34.575
20
-33.586
30
0
11
34.204
21
-34.183
31
0
0
LINE
8
1
62
1
10
34.204
20
-34.183
30
0
11
34.201
21
-34.189
31
0
0
LINE
8
1
62
1
10
34.201
20
-34.189
30
0
11
33.816
21
-34.778
31
0
0
LINE
8
1
62
1
10
33.816
20
-34.778
30
0
11
33.813
21
-34.782
31
0
0
LINE
8
1
62
1
10
33.813
20
-34.782
30
0
11
33.416
21
-35.364
31
0
0
LINE
8
1
62
1
10
33.416
20
-35.364
30
0
11
33.414
21
-35.368
31
0
0
LINE
8
1
62
1
10
33.414
20
-35.368
30
0
11
33.008
21
-35.944
31
0
0
LINE
8
1
62
1
10
33.008
20
-35.944
30
0
11
33.005
21
-35.949
31
0
0
LINE
8
1
62
1
10
33.005
20
-35.949
30
0
11
32.172
21
-37.089
31
0
0
LINE
8
1
62
1
10
32.172
20
-37.089
30
0
11
32.17
21
-37.092
31
0
0
LINE
8
1
62
1
10
32.17
20
-37.092
30
0
11
31.323
21
-38.223
31
0
0
ARC
8
1
62
1
10
31.083
20
-38.043
30
0
40
0.3
50
-41.287702
51
-36.847312
0
LINE
8
1
62
1
10
31.308
20
-38.241
30
0
11
30.194
21
-39.51
31
0
0
LINE
8
1
62
1
10
30.194
20
-39.51
30
0
11
30.192
21
-39.512
31
0
0
LINE
8
1
62
1
10
30.192
20
-39.512
30
0
11
29.068
21
-40.77
31
0
0
LINE
8
1
62
1
10
29.068
20
-40.77
30
0
11
29.065
21
-40.774
31
0
0
LINE
8
1
62
1
10
29.065
20
-40.774
30
0
11
27.92
21
-42.013
31
0
0
LINE
8
1
62
1
10
27.92
20
-42.013
30
0
11
27.916
21
-42.017
31
0
0
LINE
8
1
62
1
10
27.916
20
-42.017
30
0
11
27.333
21
-42.626
31
0
0
LINE
8
1
62
1
10
27.333
20
-42.626
30
0
11
27.331
21
-42.629
31
0
0
LINE
8
1
62
1
10
27.331
20
-42.629
30
0
11
26.74
21
-43.23
31
0
0
LINE
8
1
62
1
10
26.74
20
-43.23
30
0
11
26.736
21
-43.234
31
0
0
LINE
8
1
62
1
10
26.736
20
-43.234
30
0
11
25.534
21
-44.417
31
0
0
LINE
8
1
62
1
10
25.534
20
-44.417
30
0
11
25.531
21
-44.421
31
0
0
LINE
8
1
62
1
10
25.531
20
-44.421
30
0
11
24.308
21
-45.584
31
0
0
LINE
8
1
62
1
10
24.308
20
-45.584
30
0
11
24.305
21
-45.587
31
0
0
LINE
8
1
62
1
10
24.305
20
-45.587
30
0
11
21.825
21
-47.879
31
0
0
LINE
8
1
62
1
10
21.825
20
-47.879
30
0
11
21.824
21
-47.88
31
0
0
LINE
8
1
62
1
10
21.824
20
-47.88
30
0
11
19.607
21
-49.909
31
0
0
LINE
8
1
62
1
10
19.607
20
-49.909
30
0
11
18.507
21
-50.93
31
0
0
LINE
8
1
62
1
10
18.507
20
-50.93
30
0
11
17.417
21
-51.959
31
0
0
LINE
8
1
62
1
10
17.417
20
-51.959
30
0
11
16.339
21
-53.001
31
0
0
LINE
8
1
62
1
10
16.339
20
-53.001
30
0
11
15.276
21
-54.057
31
0
0
LINE
8
1
62
1
10
15.276
20
-54.057
30
0
11
13.178
21
-56.192
31
0
0
LINE
8
1
62
1
10
13.178
20
-56.192
30
0
11
12.38
21
-57.133
31
0
0
LINE
8
1
62
1
10
12.38
20
-57.133
30
0
11
11.993
21
-57.612
31
0
0
LINE
8
1
62
1
10
11.993
20
-57.612
30
0
11
11.619
21
-58.099
31
0
0
LINE
8
1
62
1
10
11.619
20
-58.099
30
0
11
11.263
21
-58.599
31
0
0
LINE
8
1
62
1
10
11.263
20
-58.599
30
0
11
10.92
21
-59.11
31
0
0
LINE
8
1
62
1
10
10.92
20
-59.11
30
0
11
10.546
21
-59.7
31
0
0
LINE
8
1
62
1
10
10.546
20
-59.7
30
0
11
38.693
21
-59.7
31
0
0
ARC
8
1
62
1
10
38.693
20
-60
30
0
40
0.3
50
0
51
90
0
LINE
8
1
62
1
10
38.993
20
-60
30
0
11
38.993
21
-73.421
31
0
0
ARC
8
1
62
1
10
38.693
20
-73.421
30
0
40
0.3
50
-90
51
0
0
LINE
8
1
62
1
10
38.693
20
-73.721
30
0
11
-11.957
21
-73.721
31
0
0
ARC
8
1
62
1
10
-11.957
20
-73.421
30
0
40
0.3
50
170.363976
51
-90
0
LINE
8
1
62
1
10
-12.252
20
-73.371
30
0
11
-11.929
21
-71.467
31
0
0
LINE
8
1
62
1
10
-11.929
20
-71.467
30
0
11
-11.929
21
-71.464
31
0
0
LINE
8
1
62
1
10
-11.929
20
-71.464
30
0
11
-11.755
21
-70.516
31
0
0
LINE
8
1
62
1
10
-11.755
20
-70.516
30
0
11
-11.754
21
-70.512
31
0
0
LINE
8
1
62
1
10
-11.754
20
-70.512
30
0
11
-11.567
21
-69.569
31
0
0
LINE
8
1
62
1
10
-11.567
20
-69.569
30
0
11
-11.566
21
-69.563
31
0
0
LINE
8
1
62
1
10
-11.566
20
-69.563
30
0
11
-11.359
21
-68.626
31
0
0
LINE
8
1
62
1
10
-11.359
20
-68.626
30
0
11
-11.357
21
-68.619
31
0
0
LINE
8
1
62
1
10
-11.357
20
-68.619
30
0
11
-11.127
21
-67.691
31
0
0
LINE
8
1
62
1
10
-11.127
20
-67.691
30
0
11
-11.125
21
-67.682
31
0
0
LINE
8
1
62
1
10
-11.125
20
-67.682
30
0
11
-10.867
21
-66.763
31
0
0
ARC
8
1
62
1
10
-10.578
20
-66.844
30
0
40
0.3
50
162.194543
51
164.288579
0
LINE
8
1
62
1
10
-10.863
20
-66.753
30
0
11
-10.572
21
-65.845
31
0
0
ARC
8
1
62
1
10
-10.286
20
-65.937
30
0
40
0.3
50
159.915745
51
162.194543
0
LINE
8
1
62
1
10
-10.568
20
-65.834
30
0
11
-10.241
21
-64.939
31
0
0
ARC
8
1
62
1
10
-9.959
20
-65.042
30
0
40
0.3
50
157.860367
51
159.914377
0
LINE
8
1
62
1
10
-10.237
20
-64.929
30
0
11
-9.877
21
-64.045
31
0
0
LINE
8
1
62
1
10
-9.877
20
-64.045
30
0
11
-9.874
21
-64.036
31
0
0
LINE
8
1
62
1
10
-9.874
20
-64.036
30
0
11
-9.486
21
-63.162
31
0
0
LINE
8
1
62
1
10
-9.486
20
-63.162
30
0
11
-9.483
21
-63.155
31
0
0
LINE
8
1
62
1
10
-9.483
20
-63.155
30
0
11
-9.073
21
-62.288
31
0
0
LINE
8
1
62
1
10
-9.073
20
-62.288
30
0
11
-9.07
21
-62.283
31
0
0
LINE
8
1
62
1
10
-9.07
20
-62.283
30
0
11
-8.641
21
-61.422
31
0
0
LINE
8
1
62
1
10
-8.641
20
-61.422
30
0
11
-8.639
21
-61.418
31
0
0
LINE
8
1
62
1
10
-8.639
20
-61.418
30
0
11
-8.196
21
-60.563
31
0
0
LINE
8
1
62
1
10
-8.196
20
-60.563
30
0
11
-8.194
21
-60.559
31
0
0
LINE
8
1
62
1
10
-8.194
20
-60.559
30
0
11
-7.285
21
-58.856
31
0
0
ARC
8
1
62
1
10
-7.02
20
-58.997
30
0
40
0.3
50
143.679842
51
151.912171
0
LINE
8
1
62
1
10
-7.262
20
-58.82
30
0
11
-5.456
21
-56.363
31
0
0
LINE
8
1
62
1
10
-5.456
20
-56.363
30
0
11
-5.454
21
-56.36
31
0
0
LINE
8
1
62
1
10
-5.454
20
-56.36
30
0
11
-4.541
21
-55.141
31
0
0
LINE
8
1
62
1
10
-4.541
20
-55.141
30
0
11
-4.539
21
-55.138
31
0
0
LINE
8
1
62
1
10
-4.539
20
-55.138
30
0
11
-3.613
21
-53.93
31
0
0
LINE
8
1
62
1
10
-3.613
20
-53.93
30
0
11
-3.61
21
-53.927
31
0
0
LINE
8
1
62
1
10
-3.61
20
-53.927
30
0
11
-2.668
21
-52.733
31
0
0
LINE
8
1
62
1
10
-2.668
20
-52.733
30
0
11
-2.665
21
-52.728
31
0
0
LINE
8
1
62
1
10
-2.665
20
-52.728
30
0
11
-1.702
21
-51.553
31
0
0
LINE
8
1
62
1
10
-1.702
20
-51.553
30
0
11
-1.697
21
-51.548
31
0
0
LINE
8
1
62
1
10
-1.697
20
-51.548
30
0
11
-0.71
21
-50.393
31
0
0
LINE
8
1
62
1
10
-0.71
20
-50.393
30
0
11
-0.705
21
-50.388
31
0
0
LINE
8
1
62
1
10
-0.705
20
-50.388
30
0
11
0.308
21
-49.257
31
0
0
LINE
8
1
62
1
10
0.308
20
-49.257
30
0
11
0.312
21
-49.252
31
0
0
LINE
8
1
62
1
10
0.312
20
-49.252
30
0
11
1.349
21
-48.141
31
0
0
LINE
8
1
62
1
10
1.349
20
-48.141
30
0
11
1.353
21
-48.137
31
0
0
LINE
8
1
62
1
10
1.353
20
-48.137
30
0
11
2.409
21
-47.044
31
0
0
LINE
8
1
62
1
10
2.409
20
-47.044
30
0
11
2.413
21
-47.041
31
0
0
LINE
8
1
62
1
10
2.413
20
-47.041
30
0
11
3.487
21
-45.963
31
0
0
LINE
8
1
62
1
10
3.487
20
-45.963
30
0
11
3.489
21
-45.96
31
0
0
LINE
8
1
62
1
10
3.489
20
-45.96
30
0
11
4.578
21
-44.894
31
0
0
LINE
8
1
62
1
10
4.578
20
-44.894
30
0
11
4.58
21
-44.892
31
0
0
LINE
8
1
62
1
10
4.58
20
-44.892
30
0
11
5.68
21
-43.837
31
0
0
LINE
8
1
62
1
10
5.68
20
-43.837
30
0
11
5.682
21
-43.835
31
0
0
LINE
8
1
62
1
10
5.682
20
-43.835
30
0
11
6.791
21
-42.788
31
0
0
LINE
8
1
62
1
10
6.791
20
-42.788
30
0
11
6.792
21
-42.786
31
0
0
LINE
8
1
62
1
10
6.792
20
-42.786
30
0
11
9.024
21
-40.704
31
0
0
LINE
8
1
62
1
10
9.024
20
-40.704
30
0
11
9.026
21
-40.702
31
0
0
LINE
8
1
62
1
10
9.026
20
-40.702
30
0
11
10.61
21
-39.244
31
0
0
LINE
8
1
62
1
10
10.61
20
-39.244
30
0
11
12.184
21
-37.777
31
0
0
LINE
8
1
62
1
10
12.184
20
-37.777
30
0
11
13.738
21
-36.293
31
0
0
LINE
8
1
62
1
10
13.738
20
-36.293
30
0
11
14.504
21
-35.542
31
0
0
LINE
8
1
62
1
10
14.504
20
-35.542
30
0
11
15.261
21
-34.784
31
0
0
LINE
8
1
62
1
10
15.261
20
-34.784
30
0
11
16.008
21
-34.016
31
0
0
LINE
8
1
62
1
10
16.008
20
-34.016
30
0
11
16.744
21
-33.239
31
0
0
LINE
8
1
62
1
10
16.744
20
-33.239
30
0
11
17.468
21
-32.45
31
0
0
LINE
8
1
62
1
10
17.468
20
-32.45
30
0
11
18.182
21
-31.652
31
0
0
LINE
8
1
62
1
10
18.182
20
-31.652
30
0
11
19.589
21
-30.029
31
0
0
LINE
8
1
62
1
10
19.589
20
-30.029
30
0
11
20.965
21
-28.407
31
0
0
LINE
8
1
62
1
10
20.965
20
-28.407
30
0
11
21.564
21
-27.403
31
0
0
LINE
8
1
62
1
10
21.564
20
-27.403
30
0
11
21.858
21
-26.891
31
0
0
LINE
8
1
62
1
10
21.858
20
-26.891
30
0
11
22.141
21
-26.377
31
0
0
LINE
8
1
62
1
10
22.141
20
-26.377
30
0
11
22.408
21
-25.86
31
0
0
LINE
8
1
62
1
10
22.408
20
-25.86
30
0
11
22.657
21
-25.339
31
0
0
LINE
8
1
62
1
10
22.657
20
-25.339
30
0
11
22.882
21
-24.813
31
0
0
LINE
8
1
62
1
10
22.882
20
-24.813
30
0
11
23.082
21
-24.28
31
0
0
LINE
8
1
62
1
10
23.082
20
-24.28
30
0
11
23.253
21
-23.738
31
0
0
LINE
8
1
62
1
10
23.253
20
-23.738
30
0
11
23.396
21
-23.187
31
0
0
LINE
8
1
62
1
10
23.396
20
-23.187
30
0
11
23.515
21
-22.625
31
0
0
LINE
8
1
62
1
10
23.515
20
-22.625
30
0
11
23.615
21
-22.054
31
0
0
LINE
8
1
62
1
10
23.615
20
-22.054
30
0
11
23.698
21
-21.475
31
0
0
LINE
8
1
62
1
10
23.698
20
-21.475
30
0
11
23.77
21
-20.891
31
0
0
LINE
8
1
62
1
10
23.77
20
-20.891
30
0
11
23.891
21
-19.73
31
0
0
LINE
8
1
62
1
10
23.891
20
-19.73
30
0
11
23.838
21
-18.729
31
0
0
LINE
8
1
62
1
10
23.838
20
-18.729
30
0
11
23.801
21
-18.225
31
0
0
LINE
8
1
62
1
10
23.801
20
-18.225
30
0
11
23.752
21
-17.728
31
0
0
LINE
8
1
62
1
10
23.752
20
-17.728
30
0
11
23.687
21
-17.24
31
0
0
LINE
8
1
62
1
10
23.687
20
-17.24
30
0
11
23.602
21
-16.762
31
0
0
LINE
8
1
62
1
10
23.602
20
-16.762
30
0
11
23.495
21
-16.296
31
0
0
LINE
8
1
62
1
10
23.495
20
-16.296
30
0
11
23.36
21
-15.842
31
0
0
LINE
8
1
62
1
10
23.36
20
-15.842
30
0
11
23.195
21
-15.402
31
0
0
LINE
8
1
62
1
10
23.195
20
-15.402
30
0
11
22.997
21
-14.971
31
0
0
LINE
8
1
62
1
10
22.997
20
-14.971
30
0
11
22.77
21
-14.548
31
0
0
LINE
8
1
62
1
10
22.77
20
-14.548
30
0
11
22.519
21
-14.131
31
0
0
LINE
8
1
62
1
10
22.519
20
-14.131
30
0
11
22.247
21
-13.717
31
0
0
LINE
8
1
62
1
10
22.247
20
-13.717
30
0
11
21.96
21
-13.307
31
0
0
LINE
8
1
62
1
10
21.96
20
-13.307
30
0
11
21.38
21
-12.52
31
0
0
LINE
8
1
62
1
10
21.38
20
-12.52
30
0
11
20.624
21
-11.95
31
0
0
LINE
8
1
62
1
10
20.624
20
-11.95
30
0
11
20.229
21
-11.667
31
0
0
LINE
8
1
62
1
10
20.229
20
-11.667
30
0
11
19.832
21
-11.399
31
0
0
LINE
8
1
62
1
10
19.832
20
-11.399
30
0
11
19.43
21
-11.15
31
0
0
LINE
8
1
62
1
10
19.43
20
-11.15
30
0
11
19.023
21
-10.925
31
0
0
LINE
8
1
62
1
10
19.023
20
-10.925
30
0
11
18.608
21
-10.728
31
0
0
LINE
8
1
62
1
10
18.608
20
-10.728
30
0
11
18.184
21
-10.562
31
0
0
LINE
8
1
62
1
10
18.184
20
-10.562
30
0
11
17.748
21
-10.426
31
0
0
LINE
8
1
62
1
10
17.748
20
-10.426
30
0
11
17.298
21
-10.317
31
0
0
LINE
8
1
62
1
10
17.298
20
-10.317
30
0
11
16.836
21
-10.23
31
0
0
LINE
8
1
62
1
10
16.836
20
-10.23
30
0
11
16.364
21
-10.163
31
0
0
LINE
8
1
62
1
10
16.364
20
-10.163
30
0
11
15.884
21
-10.111
31
0
0
LINE
8
1
62
1
10
15.884
20
-10.111
30
0
11
15.396
21
-10.071
31
0
0
LINE
8
1
62
1
10
15.396
20
-10.071
30
0
11
14.423
21
-10.011
31
0
0
LINE
8
1
62
1
10
14.423
20
-10.011
30
0
11
13.441
21
-10.08
31
0
0
LINE
8
1
62
1
10
13.441
20
-10.08
30
0
11
12.949
21
-10.125
31
0
0
LINE
8
1
62
1
10
12.949
20
-10.125
30
0
11
12.465
21
-10.182
31
0
0
LINE
8
1
62
1
10
12.465
20
-10.182
30
0
11
11.99
21
-10.255
31
0
0
LINE
8
1
62
1
10
11.99
20
-10.255
30
0
11
11.525
21
-10.347
31
0
0
LINE
8
1
62
1
10
11.525
20
-10.347
30
0
11
11.073
21
-10.464
31
0
0
LINE
8
1
62
1
10
11.073
20
-10.464
30
0
11
10.635
21
-10.607
31
0
0
LINE
8
1
62
1
10
10.635
20
-10.607
30
0
11
10.211
21
-10.782
31
0
0
LINE
8
1
62
1
10
10.211
20
-10.782
30
0
11
9.796
21
-10.989
31
0
0
LINE
8
1
62
1
10
9.796
20
-10.989
30
0
11
9.389
21
-11.224
31
0
0
LINE
8
1
62
1
10
9.389
20
-11.224
30
0
11
8.987
21
-11.482
31
0
0
LINE
8
1
62
1
10
8.987
20
-11.482
30
0
11
8.59
21
-11.761
31
0
0
LINE
8
1
62
1
10
8.59
20
-11.761
30
0
11
8.197
21
-12.055
31
0
0
LINE
8
1
62
1
10
8.197
20
-12.055
30
0
11
7.445
21
-12.643
31
0
0
LINE
8
1
62
1
10
7.445
20
-12.643
30
0
11
6.786
21
-13.621
31
0
0
LINE
8
1
62
1
10
6.786
20
-13.621
30
0
11
6.459
21
-14.129
31
0
0
LINE
8
1
62
1
10
6.459
20
-14.129
30
0
11
6.15
21
-14.642
31
0
0
LINE
8
1
62
1
10
6.15
20
-14.642
30
0
11
5.863
21
-15.16
31
0
0
LINE
8
1
62
1
10
5.863
20
-15.16
30
0
11
5.603
21
-15.684
31
0
0
LINE
8
1
62
1
10
5.603
20
-15.684
30
0
11
5.376
21
-16.218
31
0
0
LINE
8
1
62
1
10
5.376
20
-16.218
30
0
11
5.183
21
-16.764
31
0
0
LINE
8
1
62
1
10
5.183
20
-16.764
30
0
11
5.021
21
-17.324
31
0
0
LINE
8
1
62
1
10
5.021
20
-17.324
30
0
11
4.887
21
-17.896
31
0
0
LINE
8
1
62
1
10
4.887
20
-17.896
30
0
11
4.776
21
-18.48
31
0
0
LINE
8
1
62
1
10
4.776
20
-18.48
30
0
11
4.684
21
-19.073
31
0
0
LINE
8
1
62
1
10
4.684
20
-19.073
30
0
11
4.609
21
-19.674
31
0
0
LINE
8
1
62
1
10
4.609
20
-19.674
30
0
11
4.545
21
-20.281
31
0
0
LINE
8
1
62
1
10
4.545
20
-20.281
30
0
11
4.437
21
-21.512
31
0
0
ARC
8
1
62
1
10
4.138
20
-21.486
30
0
40
0.3
50
-95.710648
51
-5.020327
0
LINE
8
1
62
1
10
4.108
20
-21.784
30
0
11
-10.29
21
-20.345
31
0
0
ARC
8
1
62
1
10
-10.26
20
-20.046
30
0
40
0.3
50
171.486535
51
-95.710738
0
LINE
8
1
62
1
10
-10.556
20
-20.002
30
0
11
-10.372
21
-18.772
31
0
0
LINE
8
1
62
1
10
-10.372
20
-18.772
30
0
11
-10.372
21
-18.77
31
0
0
LINE
8
1
62
1
10
-10.372
20
-18.77
30
0
11
-10.179
21
-17.545
31
0
0
LINE
8
1
62
1
10
-10.179
20
-17.545
30
0
11
-10.178
21
-17.541
31
0
0
LINE
8
1
62
1
10
-10.178
20
-17.541
30
0
11
-9.965
21
-16.326
31
0
0
LINE
8
1
62
1
10
-9.965
20
-16.326
30
0
11
-9.964
21
-16.318
31
0
0
LINE
8
1
62
1
10
-9.964
20
-16.318
30
0
11
-9.723
21
-15.117
31
0
0
LINE
8
1
62
1
10
-9.723
20
-15.117
30
0
11
-9.722
21
-15.11
31
0
0
LINE
8
1
62
1
10
-9.722
20
-15.11
30
0
11
-9.587
21
-14.516
31
0
0
LINE
8
1
62
1
10
-9.587
20
-14.516
30
0
11
-9.586
21
-14.511
31
0
0
LINE
8
1
62
1
10
-9.586
20
-14.511
30
0
11
-9.441
21
-13.923
31
0
0
LINE
8
1
62
1
10
-9.441
20
-13.923
30
0
11
-9.44
21
-13.916
31
0
0
LINE
8
1
62
1
10
-9.44
20
-13.916
30
0
11
-9.283
21
-13.334
31
0
0
LINE
8
1
62
1
10
-9.283
20
-13.334
30
0
11
-9.281
21
-13.327
31
0
0
LINE
8
1
62
1
10
-9.281
20
-13.327
30
0
11
-9.111
21
-12.751
31
0
0
LINE
8
1
62
1
10
-9.111
20
-12.751
30
0
11
-9.109
21
-12.743
31
0
0
LINE
8
1
62
1
10
-9.109
20
-12.743
30
0
11
-8.925
21
-12.174
31
0
0
LINE
8
1
62
1
10
-8.925
20
-12.174
30
0
11
-8.922
21
-12.166
31
0
0
LINE
8
1
62
1
10
-8.922
20
-12.166
30
0
11
-8.723
21
-11.605
31
0
0
LINE
8
1
62
1
10
-8.723
20
-11.605
30
0
11
-8.72
21
-11.596
31
0
0
LINE
8
1
62
1
10
-8.72
20
-11.596
30
0
11
-8.504
21
-11.043
31
0
0
ARC
8
1
62
1
10
-8.224
20
-11.152
30
0
40
0.3
50
156.748005
51
158.66541
0
LINE
8
1
62
1
10
-8.5
20
-11.034
30
0
11
-8.266
21
-10.49
31
0
0
ARC
8
1
62
1
10
-7.99
20
-10.608
30
0
40
0.3
50
154.70143
51
156.747933
0
LINE
8
1
62
1
10
-8.262
20
-10.48
30
0
11
-8.009
21
-9.945
31
0
0
ARC
8
1
62
1
10
-7.737
20
-10.073
30
0
40
0.3
50
152.520051
51
154.701391
0
LINE
8
1
62
1
10
-8.004
20
-9.935
30
0
11
-7.731
21
-9.41
31
0
0
ARC
8
1
62
1
10
-7.464
20
-9.548
30
0
40
0.3
50
150.359085
51
152.520051
0
LINE
8
1
62
1
10
-7.725
20
-9.4
30
0
11
-7.432
21
-8.885
31
0
0
ARC
8
1
62
1
10
-7.172
20
-9.033
30
0
40
0.3
50
148.352179
51
150.359243
0
LINE
8
1
62
1
10
-7.427
20
-8.876
30
0
11
-7.115
21
-8.37
31
0
0
LINE
8
1
62
1
10
-7.115
20
-8.37
30
0
11
-7.11
21
-8.362
31
0
0
LINE
8
1
62
1
10
-7.11
20
-8.362
30
0
11
-6.781
21
-7.865
31
0
0
LINE
8
1
62
1
10
-6.781
20
-7.865
30
0
11
-6.776
21
-7.858
31
0
0
LINE
8
1
62
1
10
-6.776
20
-7.858
30
0
11
-6.432
21
-7.369
31
0
0
LINE
8
1
62
1
10
-6.432
20
-7.369
30
0
11
-6.427
21
-7.362
31
0
0
LINE
8
1
62
1
10
-6.427
20
-7.362
30
0
11
-6.068
21
-6.88
31
0
0
LINE
8
1
62
1
10
-6.068
20
-6.88
30
0
11
-6.064
21
-6.875
31
0
0
LINE
8
1
62
1
10
-6.064
20
-6.875
30
0
11
-5.692
21
-6.399
31
0
0
LINE
8
1
62
1
10
-5.692
20
-6.399
30
0
11
-5.688
21
-6.394
31
0
0
LINE
8
1
62
1
10
-5.688
20
-6.394
30
0
11
-5.304
21
-5.924
31
0
0
LINE
8
1
62
1
10
-5.304
20
-5.924
30
0
11
-5.301
21
-5.92
31
0
0
LINE
8
1
62
1
10
-5.301
20
-5.92
30
0
11
-4.907
21
-5.455
31
0
0
LINE
8
1
62
1
10
-4.907
20
-5.455
30
0
11
-4.903
21
-5.45
31
0
0
LINE
8
1
62
1
10
-4.903
20
-5.45
30
0
11
-4.092
21
-4.532
31
0
0
LINE
8
1
62
1
10
-4.092
20
-4.532
30
0
11
-4.088
21
-4.527
31
0
0
LINE
8
1
62
1
10
-4.088
20
-4.527
30
0
11
-3.253
21
-3.621
31
0
0
LINE
8
1
62
1
10
-3.253
20
-3.621
30
0
11
-3.251
21
-3.618
31
0
0
LINE
8
1
62
1
10
-3.251
20
-3.618
30
0
11
-2.405
21
-2.718
31
0
0
ARC
8
1
62
1
10
-2.187
20
-2.923
30
0
40
0.3
50
121.128389
51
136.806082
0
LINE
8
1
62
1
10
-2.342
20
-2.666
30
0
11
-0.388
21
-1.486
31
0
0
LINE
8
1
62
1
10
-0.388
20
-1.486
30
0
11
-0.383
21
-1.483
31
0
0
LINE
8
1
62
1
10
-0.383
20
-1.483
30
0
11
0.601
21
-0.915
31
0
0
LINE
8
1
62
1
10
0.601
20
-0.915
30
0
11
0.607
21
-0.911
31
0
0
LINE
8
1
62
1
10
0.607
20
-0.911
30
0
11
1.6
21
-0.37
31
0
0
LINE
8
1
62
1
10
1.6
20
-0.37
30
0
11
1.606
21
-0.366
31
0
0
LINE
8
1
62
1
10
1.606
20
-0.366
30
0
11
2.106
21
-0.108
31
0
0
LINE
8
1
62
1
10
2.106
20
-0.108
30
0
11
2.111
21
-0.106
31
0
0
LINE
8
1
62
1
10
2.111
20
-0.106
30
0
11
2.614
21
0.143
31
0
0
LINE
8
1
62
1
10
2.614
20
0.143
30
0
11
2.619
21
0.146
31
0
0
LINE
8
1
62
1
10
2.619
20
0.146
30
0
11
3.126
21
0.383
31
0
0
LINE
8
1
62
1
10
3.126
20
0.383
30
0
11
3.132
21
0.386
31
0
0
LINE
8
1
62
1
10
-7.811
20
-20.592
30
0
11
-10.29
21
-20.345
31
0
0
ARC
8
1
62
1
10
-10.26
20
-20.046
30
0
40
0.3
50
171.486535
51
-95.710738
0
LINE
8
1
62
1
10
-10.556
20
-20.002
30
0
11
-10.372
21
-18.772
31
0
0
LINE
8
1
62
1
10
-10.372
20
-18.772
30
0
11
-10.372
21
-18.77
31
0
0
LINE
8
1
62
1
10
-10.372
20
-18.77
30
0
11
-10.179
21
-17.545
31
0
0
LINE
8
1
62
1
10
-10.179
20
-17.545
30
0
11
-10.178
21
-17.541
31
0
0
LINE
8
1
62
1
10
-10.178
20
-17.541
30
0
11
-9.965
21
-16.326
31
0
0
LINE
8
1
62
1
10
-9.965
20
-16.326
30
0
11
-9.964
21
-16.318
31
0
0
LINE
8
1
62
1
10
-9.964
20
-16.318
30
0
11
-9.723
21
-15.117
31
0
0
LINE
8
1
62
1
10
-9.723
20
-15.117
30
0
11
-9.722
21
-15.11
31
0
0
LINE
8
1
62
1
10
-9.722
20
-15.11
30
0
11
-9.587
21
-14.516
31
0
0
LINE
8
1
62
1
10
-9.587
20
-14.516
30
0
11
-9.586
21
-14.511
31
0
0
LINE
8
1
62
1
10
-9.586
20
-14.511
30
0
11
-9.441
21
-13.923
31
0
0
LINE
8
1
62
1
10
-9.441
20
-13.923
30
0
11
-9.44
21
-13.916
31
0
0
LINE
8
1
62
1
10
-9.44
20
-13.916
30
0
11
-9.283
21
-13.334
31
0
0
LINE
8
1
62
1
10
-9.283
20
-13.334
30
0
11
-9.281
21
-13.327
31
0
0
LINE
8
1
62
1
10
-9.281
20
-13.327
30
0
11
-9.111
21
-12.751
31
0
0
LINE
8
1
62
1
10
-9.111
20
-12.751
30
0
11
-9.109
21
-12.743
31
0
0
LINE
8
1
62
1
10
-9.109
20
-12.743
30
0
11
-8.925
21
-12.174
31
0
0
LINE
8
1
62
1
10
-8.925
20
-12.174
30
0
11
-8.922
21
-12.166
31
0
0
LINE
8
1
62
1
10
-8.922
20
-12.166
30
0
11
-8.723
21
-11.605
31
0
0
LINE
8
1
62
1
10
-8.723
20
-11.605
30
0
11
-8.72
21
-11.596
31
0
0
LINE
8
1
62
1
10
-8.72
20
-11.596
30
0
11
-8.504
21
-11.043
31
0
0
ARC
8
1
62
1
10
-8.224
20
-11.152
30
0
40
0.3
50
156.748005
51
158.66541
0
LINE
8
1
62
1
10
-8.5
20
-11.034
30
0
11
-8.266
21
-10.49
31
0
0
ARC
8
1
62
1
10
-7.99
20
-10.608
30
0
40
0.3
50
154.70143
51
156.747933
0
LINE
8
1
62
1
10
-8.262
20
-10.48
30
0
11
-8.009
21
-9.945
31
0
0
ARC
8
1
62
1
10
-7.737
20
-10.073
30
0
40
0.3
50
152.520051
51
154.701391
0
LINE
8
1
62
1
10
-8.004
20
-9.935
30
0
11
-7.731
21
-9.41
31
0
0
ARC
8
1
62
1
10
-7.464
20
-9.548
30
0
40
0.3
50
150.359085
51
152.520051
0
LINE
8
1
62
1
10
-7.725
20
-9.4
30
0
11
-7.432
21
-8.885
31
0
0
ARC
8
1
62
1
10
-7.172
20
-9.033
30
0
40
0.3
50
148.352179
51
150.359243
0
LINE
8
1
62
1
10
-7.427
20
-8.876
30
0
11
-7.115
21
-8.37
31
0
0
LINE
8
1
62
1
10
-7.115
20
-8.37
30
0
11
-7.11
21
-8.362
31
0
0
LINE
8
1
62
1
10
-7.11
20
-8.362
30
0
11
-6.781
21
-7.865
31
0
0
LINE
8
1
62
1
10
-6.781
20
-7.865
30
0
11
-6.776
21
-7.858
31
0
0
LINE
8
1
62
1
10
-6.776
20
-7.858
30
0
11
-6.432
21
-7.369
31
0
0
LINE
8
1
62
1
10
-6.432
20
-7.369
30
0
11
-6.427
21
-7.362
31
0
0
LINE
8
1
62
1
10
-6.427
20
-7.362
30
0
11
-6.068
21
-6.88
31
0
0
LINE
8
1
62
1
10
-6.068
20
-6.88
30
0
11
-6.064
21
-6.875
31
0
0
LINE
8
1
62
1
10
-6.064
20
-6.875
30
0
11
-5.692
21
-6.399
31
0
0
LINE
8
1
62
1
10
-5.692
20
-6.399
30
0
11
-5.688
21
-6.394
31
0
0
LINE
8
1
62
1
10
-5.688
20
-6.394
30
0
11
-5.304
21
-5.924
31
0
0
LINE
8
1
62
1
10
-5.304
20
-5.924
30
0
11
-5.301
21
-5.92
31
0
0
LINE
8
1
62
1
10
-5.301
20
-5.92
30
0
11
-4.907
21
-5.455
31
0
0
LINE
8
1
62
1
10
-4.907
20
-5.455
30
0
11
-4.903
21
-5.45
31
0
0
LINE
8
1
62
1
10
-4.903
20
-5.45
30
0
11
-4.092
21
-4.532
31
0
0
LINE
8
1
62
1
10
-4.092
20
-4.532
30
0
11
-4.088
21
-4.527
31
0
0
LINE
8
1
62
1
10
-4.088
20
-4.527
30
0
11
-3.253
21
-3.621
31
0
0
LINE
8
1
62
1
10
-3.253
20
-3.621
30
0
11
-3.251
21
-3.618
31
0
0
LINE
8
1
62
1
10
-3.251
20
-3.618
30
0
11
-2.405
21
-2.718
31
0
0
ARC
8
1
62
1
10
-2.187
20
-2.923
30
0
40
0.3
50
121.128389
51
136.806082
0
LINE
8
1
62
1
10
-2.342
20
-2.666
30
0
11
-0.388
21
-1.486
31
0
0
LINE
8
1
62
1
10
-0.388
20
-1.486
30
0
11
-0.383
21
-1.483
31
0
0
LINE
8
1
62
1
10
-0.383
20
-1.483
30
0
11
0.601
21
-0.915
31
0
0
LINE
8
1
62
1
10
0.601
20
-0.915
30
0
11
0.607
21
-0.911
31
0
0
LINE
8
1
62
1
10
0.607
20
-0.911
30
0
11
1.6
21
-0.37
31
0
0
LINE
8
1
62
1
10
1.6
20
-0.37
30
0
11
1.606
21
-0.366
31
0
0
LINE
8
1
62
1
10
1.606
20
-0.366
30
0
11
2.106
21
-0.108
31
0
0
LINE
8
1
62
1
10
2.106
20
-0.108
30
0
11
2.111
21
-0.106
31
0
0
LINE
8
1
62
1
10
2.111
20
-0.106
30
0
11
2.614
21
0.143
31
0
0
LINE
8
1
62
1
10
2.614
20
0.143
30
0
11
2.619
21
0.146
31
0
0
LINE
8
1
62
1
10
2.619
20
0.146
30
0
11
3.126
21
0.383
31
0
0
LINE
8
1
62
1
10
3.126
20
0.383
30
0
11
3.132
21
0.386
31
0
0
LINE
8
1
62
1
10
3.132
20
0.386
30
0
11
3.642
21
0.611
31
0
0
LINE
8
1
62
1
10
3.642
20
0.611
30
0
11
3.649
21
0.614
31
0
0
LINE
8
1
62
1
10
3.649
20
0.614
30
0
11
4.164
21
0.827
31
0
0
LINE
8
1
62
1
10
4.164
20
0.827
30
0
11
4.171
21
0.83
31
0
0
LINE
8
1
62
1
10
4.171
20
0.83
30
0
11
4.69
21
1.028
31
0
0
LINE
8
1
62
1
10
4.69
20
1.028
30
0
11
4.698
21
1.031
31
0
0
LINE
8
1
62
1
10
4.698
20
1.031
30
0
11
5.222
21
1.213
31
0
0
LINE
8
1
62
1
10
5.222
20
1.213
30
0
11
5.231
21
1.216
31
0
0
LINE
8
1
62
1
10
5.231
20
1.216
30
0
11
5.76
21
1.383
31
0
0
LINE
8
1
62
1
10
5.76
20
1.383
30
0
11
5.768
21
1.385
31
0
0
LINE
8
1
62
1
10
5.768
20
1.385
30
0
11
6.302
21
1.536
31
0
0
LINE
8
1
62
1
10
6.302
20
1.536
30
0
11
6.311
21
1.538
31
0
0
LINE
8
1
62
1
10
6.311
20
1.538
30
0
11
6.849
21
1.674
31
0
0
LINE
8
1
62
1
10
6.849
20
1.674
30
0
11
6.857
21
1.676
31
0
0
LINE
8
1
62
1
10
6.857
20
1.676
30
0
11
7.4
21
1.797
31
0
0
LINE
8
1
62
1
10
7.4
20
1.797
30
0
11
7.407
21
1.799
31
0
0
LINE
8
1
62
1
10
7.407
20
1.799
30
0
11
7.954
21
1.908
31
0
0
LINE
8
1
62
1
10
7.954
20
1.908
30
0
11
7.961
21
1.909
31
0
0
LINE
8
1
62
1
10
7.961
20
1.909
30
0
11
8.512
21
2.006
31
0
0
LINE
8
1
62
1
10
8.512
20
2.006
30
0
11
8.518
21
2.007
31
0
0
LINE
8
1
62
1
10
8.518
20
2.007
30
0
11
9.072
21
2.092
31
0
0
LINE
8
1
62
1
10
9.072
20
2.092
30
0
11
9.08
21
2.093
31
0
0
LINE
8
1
62
1
10
9.08
20
2.093
30
0
11
10.198
21
2.236
31
0
0
LINE
8
1
62
1
10
10.198
20
2.236
30
0
11
10.206
21
2.237
31
0
0
LINE
8
1
62
1
10
10.206
20
2.237
30
0
11
11.334
21
2.348
31
0
0
LINE
8
1
62
1
10
11.334
20
2.348
30
0
11
11.341
21
2.349
31
0
0
LINE
8
1
62
1
10
11.341
20
2.349
30
0
11
12.476
21
2.436
31
0
0
LINE
8
1
62
1
10
12.476
20
2.436
30
0
11
12.481
21
2.436
31
0
0
LINE
8
1
62
1
10
12.481
20
2.436
30
0
11
14.765
21
2.57
31
0
0
ARC
8
1
62
1
10
14.782
20
2.271
30
0
40
0.3
50
86.7573
51
93.361469
0
LINE
8
1
62
1
10
14.799
20
2.57
30
0
11
17.211
21
2.434
31
0
0
LINE
8
1
62
1
10
17.211
20
2.434
30
0
11
17.217
21
2.433
31
0
0
LINE
8
1
62
1
10
17.217
20
2.433
30
0
11
18.415
21
2.341
31
0
0
LINE
8
1
62
1
10
18.415
20
2.341
30
0
11
18.422
21
2.341
31
0
0
LINE
8
1
62
1
10
18.422
20
2.341
30
0
11
19.609
21
2.221
31
0
0
LINE
8
1
62
1
10
19.609
20
2.221
30
0
11
19.616
21
2.22
31
0
0
LINE
8
1
62
1
10
19.616
20
2.22
30
0
11
20.205
21
2.146
31
0
0
LINE
8
1
62
1
10
20.205
20
2.146
30
0
11
20.211
21
2.145
31
0
0
LINE
8
1
62
1
10
20.211
20
2.145
30
0
11
20.796
21
2.061
31
0
0
LINE
8
1
62
1
10
20.796
20
2.061
30
0
11
20.802
21
2.06
31
0
0
LINE
8
1
62
1
10
20.802
20
2.06
30
0
11
21.383
21
1.964
31
0
0
LINE
8
1
62
1
10
21.383
20
1.964
30
0
11
21.39
21
1.963
31
0
0
LINE
8
1
62
1
10
21.39
20
1.963
30
0
11
21.966
21
1.854
31
0
0
LINE
8
1
62
1
10
21.966
20
1.854
30
0
11
21.974
21
1.853
31
0
0
LINE
8
1
62
1
10
21.974
20
1.853
30
0
11
22.545
21
1.73
31
0
0
LINE
8
1
62
1
10
22.545
20
1.73
30
0
11
22.553
21
1.728
31
0
0
LINE
8
1
62
1
10
22.553
20
1.728
30
0
11
23.119
21
1.59
31
0
0
LINE
8
1
62
1
10
23.119
20
1.59
30
0
11
23.127
21
1.588
31
0
0
LINE
8
1
62
1
10
23.127
20
1.588
30
0
11
23.687
21
1.433
31
0
0
LINE
8
1
62
1
10
23.687
20
1.433
30
0
11
23.696
21
1.43
31
0
0
LINE
8
1
62
1
10
23.696
20
1.43
30
0
11
24.25
21
1.258
31
0
0
ARC
8
1
62
1
10
24.161
20
0.972
30
0
40
0.3
50
70.732962
51
72.710683
0
LINE
8
1
62
1
10
24.26
20
1.255
30
0
11
24.807
21
1.064
31
0
0
ARC
8
1
62
1
10
24.708
20
0.78
30
0
40
0.3
50
68.670438
51
70.732962
0
LINE
8
1
62
1
10
24.817
20
1.06
30
0
11
25.357
21
0.849
31
0
0
ARC
8
1
62
1
10
25.247
20
0.57
30
0
40
0.3
50
66.698819
51
68.670107
0
LINE
8
1
62
1
10
25.366
20
0.845
30
0
11
25.899
21
0.616
31
0
0
LINE
8
1
62
1
10
25.899
20
0.616
30
0
11
25.908
21
0.612
31
0
0
LINE
8
1
62
1
10
25.908
20
0.612
30
0
11
26.435
21
0.365
31
0
0
LINE
8
1
62
1
10
26.435
20
0.365
30
0
11
26.443
21
0.361
31
0
0
LINE
8
1
62
1
10
26.443
20
0.361
30
0
11
26.964
21
0.098
31
0
0
LINE
8
1
62
1
10
26.964
20
0.098
30
0
11
26.971
21
0.094
31
0
0
LINE
8
1
62
1
10
26.971
20
0.094
30
0
11
27.487
21
-0.184
31
0
0
LINE
8
1
62
1
10
27.487
20
-0.184
30
0
11
27.493
21
-0.188
31
0
0
LINE
8
1
62
1
10
27.493
20
-0.188
30
0
11
28.004
21
-0.479
31
0
0
LINE
8
1
62
1
10
28.004
20
-0.479
30
0
11
28.009
21
-0.482
31
0
0
LINE
8
1
62
1
10
28.009
20
-0.482
30
0
11
28.516
21
-0.786
31
0
0
LINE
8
1
62
1
10
28.516
20
-0.786
30
0
11
28.523
21
-0.79
31
0
0
LINE
8
1
62
1
10
28.523
20
-0.79
30
0
11
29.525
21
-1.428
31
0
0
LINE
8
1
62
1
10
29.525
20
-1.428
30
0
11
29.532
21
-1.433
31
0
0
LINE
8
1
62
1
10
29.532
20
-1.433
30
0
11
30.523
21
-2.103
31
0
0
LINE
8
1
62
1
10
30.523
20
-2.103
30
0
11
30.527
21
-2.106
31
0
0
LINE
8
1
62
1
10
30.527
20
-2.106
30
0
11
31.51
21
-2.798
31
0
0
LINE
8
1
62
1
10
31.51
20
-2.798
30
0
11
31.512
21
-2.799
31
0
0
LINE
8
1
62
1
10
31.512
20
-2.799
30
0
11
32.491
21
-3.502
31
0
0
ARC
8
1
62
1
10
32.317
20
-3.746
30
0
40
0.3
50
40.957114
51
54.338956
0
LINE
8
1
62
1
10
32.543
20
-3.549
30
0
11
33.243
21
-4.355
31
0
0
LINE
8
1
62
1
10
33.243
20
-4.355
30
0
11
33.245
21
-4.357
31
0
0
LINE
8
1
62
1
10
33.245
20
-4.357
30
0
11
33.935
21
-5.168
31
0
0
LINE
8
1
62
1
10
33.935
20
-5.168
30
0
11
33.939
21
-5.172
31
0
0
LINE
8
1
62
1
10
33.939
20
-5.172
30
0
11
34.61
21
-5.991
31
0
0
LINE
8
1
62
1
10
34.61
20
-5.991
30
0
11
34.615
21
-5.997
31
0
0
LINE
8
1
62
1
10
34.615
20
-5.997
30
0
11
35.258
21
-6.828
31
0
0
LINE
8
1
62
1
10
35.258
20
-6.828
30
0
11
35.263
21
-6.835
31
0
0
LINE
8
1
62
1
10
35.263
20
-6.835
30
0
11
35.571
21
-7.256
31
0
0
LINE
8
1
62
1
10
35.571
20
-7.256
30
0
11
35.575
21
-7.261
31
0
0
LINE
8
1
62
1
10
35.575
20
-7.261
30
0
11
35.872
21
-7.687
31
0
0
LINE
8
1
62
1
10
35.872
20
-7.687
30
0
11
35.876
21
-7.693
31
0
0
LINE
8
1
62
1
10
35.876
20
-7.693
30
0
11
36.161
21
-8.124
31
0
0
LINE
8
1
62
1
10
36.161
20
-8.124
30
0
11
36.166
21
-8.131
31
0
0
LINE
8
1
62
1
10
36.166
20
-8.131
30
0
11
36.438
21
-8.567
31
0
0
LINE
8
1
62
1
10
36.438
20
-8.567
30
0
11
36.442
21
-8.575
31
0
0
LINE
8
1
62
1
10
36.442
20
-8.575
30
0
11
36.7
21
-9.017
31
0
0
LINE
8
1
62
1
10
36.7
20
-9.017
30
0
11
36.705
21
-9.026
31
0
0
LINE
8
1
62
1
10
36.705
20
-9.026
30
0
11
36.948
21
-9.475
31
0
0
ARC
8
1
62
1
10
36.683
20
-9.618
30
0
40
0.3
50
26.328182
51
28.354898
0
LINE
8
1
62
1
10
36.952
20
-9.485
30
0
11
37.178
21
-9.941
31
0
0
ARC
8
1
62
1
10
36.909
20
-10.074
30
0
40
0.3
50
24.144631
51
26.328668
0
LINE
8
1
62
1
10
37.183
20
-9.951
30
0
11
37.391
21
-10.415
31
0
0
ARC
8
1
62
1
10
37.117
20
-10.538
30
0
40
0.3
50
21.882887
51
24.144166
0
LINE
8
1
62
1
10
37.396
20
-10.426
30
0
11
37.585
21
-10.898
31
0
0
ARC
8
1
62
1
10
37.307
20
-11.01
30
0
40
0.3
50
19.726503
51
21.883159
0
LINE
8
1
62
1
10
37.589
20
-10.908
30
0
11
37.761
21
-11.388
31
0
0
ARC
8
1
62
1
10
37.479
20
-11.489
30
0
40
0.3
50
17.721759
51
19.726503
0
LINE
8
1
62
1
10
37.764
20
-11.398
30
0
11
37.92
21
-11.884
31
0
0
LINE
8
1
62
1
10
37.92
20
-11.884
30
0
11
37.923
21
-11.893
31
0
0
LINE
8
1
62
1
10
37.923
20
-11.893
30
0
11
38.063
21
-12.386
31
0
0
LINE
8
1
62
1
10
38.063
20
-12.386
30
0
11
38.065
21
-12.395
31
0
0
LINE
8
1
62
1
10
38.065
20
-12.395
30
0
11
38.191
21
-12.894
31
0
0
LINE
8
1
62
1
10
38.191
20
-12.894
30
0
11
38.193
21
-12.901
31
0
0
LINE
8
1
62
1
10
38.193
20
-12.901
30
0
11
38.306
21
-13.406
31
0
0
LINE
8
1
62
1
10
38.306
20
-13.406
30
0
11
38.308
21
-13.413
31
0
0
LINE
8
1
62
1
10
38.308
20
-13.413
30
0
11
38.409
21
-13.922
31
0
0
LINE
8
1
62
1
10
38.409
20
-13.922
30
0
11
38.41
21
-13.929
31
0
0
LINE
8
1
62
1
10
38.41
20
-13.929
30
0
11
38.501
21
-14.443
31
0
0
LINE
8
1
62
1
10
38.501
20
-14.443
30
0
11
38.502
21
-14.451
31
0
0
LINE
8
1
62
1
10
38.502
20
-14.451
30
0
11
38.657
21
-15.49
31
0
0
LINE
8
1
62
1
10
38.657
20
-15.49
30
0
11
38.658
21
-15.499
31
0
0
LINE
8
1
62
1
10
38.658
20
-15.499
30
0
11
38.785
21
-16.55
31
0
0
LINE
8
1
62
1
10
38.785
20
-16.55
30
0
11
38.785
21
-16.556
31
0
0
LINE
8
1
62
1
10
38.785
20
-16.556
30
0
11
38.893
21
-17.615
31
0
0
LINE
8
1
62
1
10
38.893
20
-17.615
30
0
11
38.893
21
-17.618
31
0
0
LINE
8
1
62
1
10
38.893
20
-17.618
30
0
11
38.992
21
-18.681
31
0
0
ARC
8
1
62
1
10
38.693
20
-18.709
30
0
40
0.3
50
-2.697739
51
5.280341
0
LINE
8
1
62
1
10
38.992
20
-18.723
30
0
11
38.934
21
-19.967
31
0
0
LINE
8
1
62
1
10
38.934
20
-19.967
30
0
11
38.934
21
-19.972
31
0
0
LINE
8
1
62
1
10
38.934
20
-19.972
30
0
11
38.853
21
-21.212
31
0
0
LINE
8
1
62
1
10
38.853
20
-21.212
30
0
11
38.853
21
-21.219
31
0
0
LINE
8
1
62
1
10
38.853
20
-21.219
30
0
11
38.798
21
-21.836
31
0
0
LINE
8
1
62
1
10
38.798
20
-21.836
30
0
11
38.797
21
-21.842
31
0
0
LINE
8
1
62
1
10
38.797
20
-21.842
30
0
11
38.729
21
-22.457
31
0
0
LINE
8
1
62
1
10
38.729
20
-22.457
30
0
11
38.728
21
-22.465
31
0
0
LINE
8
1
62
1
10
38.728
20
-22.465
30
0
11
38.644
21
-23.076
31
0
0
LINE
8
1
62
1
10
38.644
20
-23.076
30
0
11
38.642
21
-23.086
31
0
0
LINE
8
1
62
1
10
38.642
20
-23.086
30
0
11
38.539
21
-23.693
31
0
0
ARC
8
1
62
1
10
38.243
20
-23.643
30
0
40
0.3
50
-11.612772
51
-9.654919
0
LINE
8
1
62
1
10
38.537
20
-23.703
30
0
11
38.413
21
-24.307
31
0
0
LINE
8
1
62
1
10
38.413
20
-24.307
30
0
11
38.411
21
-24.317
31
0
0
LINE
8
1
62
1
10
38.411
20
-24.317
30
0
11
38.267
21
-24.917
31
0
0
LINE
8
1
62
1
10
38.267
20
-24.917
30
0
11
38.265
21
-24.925
31
0
0
LINE
8
1
62
1
10
38.265
20
-24.925
30
0
11
38.106
21
-25.522
31
0
0
LINE
8
1
62
1
10
38.106
20
-25.522
30
0
11
38.104
21
-25.528
31
0
0
LINE
8
1
62
1
10
38.104
20
-25.528
30
0
11
37.931
21
-26.123
31
0
0
LINE
8
1
62
1
10
37.931
20
-26.123
30
0
11
37.928
21
-26.13
31
0
0
LINE
8
1
62
1
10
37.928
20
-26.13
30
0
11
37.552
21
-27.313
31
0
0
LINE
8
1
62
1
10
37.552
20
-27.313
30
0
11
37.55
21
-27.319
31
0
0
LINE
8
1
62
1
10
37.55
20
-27.319
30
0
11
37.152
21
-28.498
31
0
0
ARC
8
1
62
1
10
36.867
20
-28.402
30
0
40
0.3
50
-24.82946
51
-18.669601
0
LINE
8
1
62
1
10
37.14
20
-28.528
30
0
11
36.546
21
-29.81
31
0
0
LINE
8
1
62
1
10
36.546
20
-29.81
30
0
11
36.545
21
-29.814
31
0
0
LINE
8
1
62
1
10
36.545
20
-29.814
30
0
11
35.934
21
-31.086
31
0
0
LINE
8
1
62
1
10
35.934
20
-31.086
30
0
11
35.931
21
-31.091
31
0
0
LINE
8
1
62
1
10
35.931
20
-31.091
30
0
11
35.614
21
-31.72
31
0
0
LINE
8
1
62
1
10
35.614
20
-31.72
30
0
11
35.612
21
-31.725
31
0
0
LINE
8
1
62
1
10
35.612
20
-31.725
30
0
11
35.284
21
-32.347
31
0
0
LINE
8
1
62
1
10
35.284
20
-32.347
30
0
11
35.281
21
-32.353
31
0
0
LINE
8
1
62
1
10
35.281
20
-32.353
30
0
11
34.939
21
-32.968
31
0
0
LINE
8
1
62
1
10
34.939
20
-32.968
30
0
11
34.936
21
-32.974
31
0
0
LINE
8
1
62
1
10
34.936
20
-32.974
30
0
11
34.579
21
-33.58
31
0
0
LINE
8
1
62
1
10
34.579
20
-33.58
30
0
11
34.575
21
-33.586
31
0
0
LINE
8
1
62
1
10
34.575
20
-33.586
30
0
11
34.204
21
-34.183
31
0
0
LINE
8
1
62
1
10
34.204
20
-34.183
30
0
11
34.201
21
-34.189
31
0
0
LINE
8
1
62
1
10
34.201
20
-34.189
30
0
11
33.816
21
-34.778
31
0
0
LINE
8
1
62
1
10
33.816
20
-34.778
30
0
11
33.813
21
-34.782
31
0
0
LINE
8
1
62
1
10
33.813
20
-34.782
30
0
11
33.416
21
-35.364
31
0
0
LINE
8
1
62
1
10
33.416
20
-35.364
30
0
11
33.414
21
-35.368
31
0
0
LINE
8
1
62
1
10
33.414
20
-35.368
30
0
11
33.008
21
-35.944
31
0
0
LINE
8
1
62
1
10
33.008
20
-35.944
30
0
11
33.005
21
-35.949
31
0
0
LINE
8
1
62
1
10
33.005
20
-35.949
30
0
11
32.172
21
-37.089
31
0
0
LINE
8
1
62
1
10
32.172
20
-37.089
30
0
11
32.17
21
-37.092
31
0
0
LINE
8
1
62
1
10
32.17
20
-37.092
30
0
11
31.323
21
-38.223
31
0
0
ARC
8
1
62
1
10
31.083
20
-38.043
30
0
40
0.3
50
-41.287702
51
-36.847312
0
LINE
8
1
62
1
10
31.308
20
-38.241
30
0
11
30.194
21
-39.51
31
0
0
LINE
8
1
62
1
10
30.194
20
-39.51
30
0
11
30.192
21
-39.512
31
0
0
LINE
8
1
62
1
10
30.192
20
-39.512
30
0
11
29.068
21
-40.77
31
0
0
LINE
8
1
62
1
10
29.068
20
-40.77
30
0
11
29.065
21
-40.774
31
0
0
LINE
8
1
62
1
10
29.065
20
-40.774
30
0
11
27.92
21
-42.013
31
0
0
LINE
8
1
62
1
10
27.92
20
-42.013
30
0
11
27.916
21
-42.017
31
0
0
LINE
8
1
62
1
10
27.916
20
-42.017
30
0
11
27.333
21
-42.626
31
0
0
LINE
8
1
62
1
10
27.333
20
-42.626
30
0
11
27.331
21
-42.629
31
0
0
LINE
8
1
62
1
10
27.331
20
-42.629
30
0
11
26.74
21
-43.23
31
0
0
LINE
8
1
62
1
10
26.74
20
-43.23
30
0
11
26.736
21
-43.234
31
0
0
LINE
8
1
62
1
10
26.736
20
-43.234
30
0
11
25.534
21
-44.417
31
0
0
LINE
8
1
62
1
10
25.534
20
-44.417
30
0
11
25.531
21
-44.421
31
0
0
LINE
8
1
62
1
10
25.531
20
-44.421
30
0
11
24.308
21
-45.584
31
0
0
LINE
8
1
62
1
10
24.308
20
-45.584
30
0
11
24.305
21
-45.587
31
0
0
LINE
8
1
62
1
10
24.305
20
-45.587
30
0
11
21.825
21
-47.879
31
0
0
LINE
8
1
62
1
10
21.825
20
-47.879
30
0
11
21.824
21
-47.88
31
0
0
LINE
8
1
62
1
10
21.824
20
-47.88
30
0
11
19.607
21
-49.909
31
0
0
LINE
8
1
62
1
10
19.607
20
-49.909
30
0
11
18.507
21
-50.93
31
0
0
LINE
8
1
62
1
10
18.507
20
-50.93
30
0
11
17.417
21
-51.959
31
0
0
LINE
8
1
62
1
10
17.417
20
-51.959
30
0
11
16.339
21
-53.001
31
0
0
LINE
8
1
62
1
10
16.339
20
-53.001
30
0
11
15.276
21
-54.057
31
0
0
LINE
8
1
62
1
10
15.276
20
-54.057
30
0
11
13.178
21
-56.192
31
0
0
LINE
8
1
62
1
10
13.178
20
-56.192
30
0
11
12.38
21
-57.133
31
0
0
LINE
8
1
62
1
10
12.38
20
-57.133
30
0
11
11.993
21
-57.612
31
0
0
LINE
8
1
62
1
10
11.993
20
-57.612
30
0
11
11.619
21
-58.099
31
0
0
LINE
8
1
62
1
10
11.619
20
-58.099
30
0
11
11.263
21
-58.599
31
0
0
LINE
8
1
62
1
10
11.263
20
-58.599
30
0
11
10.92
21
-59.11
31
0
0
LINE
8
1
62
1
10
10.92
20
-59.11
30
0
11
10.546
21
-59.7
31
0
0
LINE
8
1
62
1
10
10.546
20
-59.7
30
0
11
38.693
21
-59.7
31
0
0
ARC
8
1
62
1
10
38.693
20
-60
30
0
40
0.3
50
0
51
90
0
LINE
8
1
62
1
10
38.993
20
-60
30
0
11
38.993
21
-73.421
31
0
0
ARC
8
1
62
1
10
38.693
20
-73.421
30
0
40
0.3
50
-90
51
0
0
LINE
8
1
62
1
10
38.693
20
-73.721
30
0
11
-11.957
21
-73.721
31
0
0
ARC
8
1
62
1
10
-11.957
20
-73.421
30
0
40
0.3
50
170.363976
51
-90
0
LINE
8
1
62
1
10
-12.252
20
-73.371
30
0
11
-11.929
21
-71.467
31
0
0
LINE
8
1
62
1
10
-11.929
20
-71.467
30
0
11
-11.929
21
-71.464
31
0
0
LINE
8
1
62
1
10
-11.929
20
-71.464
30
0
11
-11.755
21
-70.516
31
0
0
LINE
8
1
62
1
10
-11.755
20
-70.516
30
0
11
-11.754
21
-70.512
31
0
0
LINE
8
1
62
1
10
-11.754
20
-70.512
30
0
11
-11.567
21
-69.569
31
0
0
LINE
8
1
62
1
10
-11.567
20
-69.569
30
0
11
-11.566
21
-69.563
31
0
0
LINE
8
1
62
1
10
-11.566
20
-69.563
30
0
11
-11.359
21
-68.626
31
0
0
LINE
8
1
62
1
10
-11.359
20
-68.626
30
0
11
-11.357
21
-68.619
31
0
0
LINE
8
1
62
1
10
-11.357
20
-68.619
30
0
11
-11.127
21
-67.691
31
0
0
LINE
8
1
62
1
10
-11.127
20
-67.691
30
0
11
-11.125
21
-67.682
31
0
0
LINE
8
1
62
1
10
-11.125
20
-67.682
30
0
11
-10.867
21
-66.763
31
0
0
ARC
8
1
62
1
10
-10.578
20
-66.844
30
0
40
0.3
50
162.194543
51
164.288579
0
LINE
8
1
62
1
10
-10.863
20
-66.753
30
0
11
-10.572
21
-65.845
31
0
0
ARC
8
1
62
1
10
-10.286
20
-65.937
30
0
40
0.3
50
159.915745
51
162.194543
0
LINE
8
1
62
1
10
-10.568
20
-65.834
30
0
11
-10.241
21
-64.939
31
0
0
ARC
8
1
62
1
10
-9.959
20
-65.042
30
0
40
0.3
50
157.860367
51
159.914377
0
LINE
8
1
62
1
10
-10.237
20
-64.929
30
0
11
-9.877
21
-64.045
31
0
0
LINE
8
1
62
1
10
-9.877
20
-64.045
30
0
11
-9.874
21
-64.036
31
0
0
LINE
8
1
62
1
10
-9.874
20
-64.036
30
0
11
-9.486
21
-63.162
31
0
0
LINE
8
1
62
1
10
-9.486
20
-63.162
30
0
11
-9.483
21
-63.155
31
0
0
LINE
8
1
62
1
10
-9.483
20
-63.155
30
0
11
-9.073
21
-62.288
31
0
0
LINE
8
1
62
1
10
-9.073
20
-62.288
30
0
11
-9.07
21
-62.283
31
0
0
LINE
8
1
62
1
10
-9.07
20
-62.283
30
0
11
-8.641
21
-61.422
31
0
0
LINE
8
1
62
1
10
-8.641
20
-61.422
30
0
11
-8.639
21
-61.418
31
0
0
LINE
8
1
62
1
10
-8.639
20
-61.418
30
0
11
-8.196
21
-60.563
31
0
0
LINE
8
1
62
1
10
-8.196
20
-60.563
30
0
11
-8.194
21
-60.559
31
0
0
LINE
8
1
62
1
10
-8.194
20
-60.559
30
0
11
-7.285
21
-58.856
31
0
0
ARC
8
1
62
1
10
-7.02
20
-58.997
30
0
40
0.3
50
143.679842
51
151.912171
0
LINE
8
1
62
1
10
-7.262
20
-58.82
30
0
11
-5.456
21
-56.363
31
0
0
LINE
8
1
62
1
10
-5.456
20
-56.363
30
0
11
-5.454
21
-56.36
31
0
0
LINE
8
1
62
1
10
-5.454
20
-56.36
30
0
11
-4.541
21
-55.141
31
0
0
LINE
8
1
62
1
10
-4.541
20
-55.141
30
0
11
-4.539
21
-55.138
31
0
0
LINE
8
1
62
1
10
-4.539
20
-55.138
30
0
11
-3.613
21
-53.93
31
0
0
LINE
8
1
62
1
10
-3.613
20
-53.93
30
0
11
-3.61
21
-53.927
31
0
0
LINE
8
1
62
1
10
-3.61
20
-53.927
30
0
11
-2.668
21
-52.733
31
0
0
LINE
8
1
62
1
10
-2.668
20
-52.733
30
0
11
-2.665
21
-52.728
31
0
0
LINE
8
1
62
1
10
-2.665
20
-52.728
30
0
11
-1.702
21
-51.553
31
0
0
LINE
8
1
62
1
10
-1.702
20
-51.553
30
0
11
-1.697
21
-51.548
31
0
0
LINE
8
1
62
1
10
-1.697
20
-51.548
30
0
11
-0.71
21
-50.393
31
0
0
LINE
8
1
62
1
10
-0.71
20
-50.393
30
0
11
-0.705
21
-50.388
31
0
0
LINE
8
1
62
1
10
-0.705
20
-50.388
30
0
11
0.308
21
-49.257
31
0
0
LINE
8
1
62
1
10
0.308
20
-49.257
30
0
11
0.312
21
-49.252
31
0
0
LINE
8
1
62
1
10
0.312
20
-49.252
30
0
11
1.349
21
-48.141
31
0
0
LINE
8
1
62
1
10
1.349
20
-48.141
30
0
11
1.353
21
-48.137
31
0
0
LINE
8
1
62
1
10
1.353
20
-48.137
30
0
11
2.409
21
-47.044
31
0
0
LINE
8
1
62
1
10
2.409
20
-47.044
30
0
11
2.413
21
-47.041
31
0
0
LINE
8
1
62
1
10
2.413
20
-47.041
30
0
11
3.487
21
-45.963
31
0
0
LINE
8
1
62
1
10
3.487
20
-45.963
30
0
11
3.489
21
-45.96
31
0
0
LINE
8
1
62
1
10
3.489
20
-45.96
30
0
11
4.578
21
-44.894
31
0
0
LINE
8
1
62
1
10
4.578
20
-44.894
30
0
11
4.58
21
-44.892
31
0
0
LINE
8
1
62
1
10
4.58
20
-44.892
30
0
11
5.68
21
-43.837
31
0
0
LINE
8
1
62
1
10
5.68
20
-43.837
30
0
11
5.682
21
-43.835
31
0
0
LINE
8
1
62
1
10
5.682
20
-43.835
30
0
11
6.791
21
-42.788
31
0
0
LINE
8
1
62
1
10
6.791
20
-42.788
30
0
11
6.792
21
-42.786
31
0
0
LINE
8
1
62
1
10
6.792
20
-42.786
30
0
11
9.024
21
-40.704
31
0
0
LINE
8
1
62
1
10
9.024
20
-40.704
30
0
11
9.026
21
-40.702
31
0
0
LINE
8
1
62
1
10
9.026
20
-40.702
30
0
11
10.61
21
-39.244
31
0
0
LINE
8
1
62
1
10
10.61
20
-39.244
30
0
11
12.184
21
-37.777
31
0
0
LINE
8
1
62
1
10
12.184
20
-37.777
30
0
11
13.738
21
-36.293
31
0
0
LINE
8
1
62
1
10
13.738
20
-36.293
30
0
11
14.504
21
-35.542
31
0
0
LINE
8
1
62
1
10
14.504
20
-35.542
30
0
11
15.261
21
-34.784
31
0
0
LINE
8
1
62
1
10
15.261
20
-34.784
30
0
11
16.008
21
-34.016
31
0
0
LINE
8
1
62
1
10
16.008
20
-34.016
30
0
11
16.744
21
-33.239
31
0
0
LINE
8
1
62
1
10
16.744
20
-33.239
30
0
11
17.468
21
-32.45
31
0
0
LINE
8
1
62
1
10
17.468
20
-32.45
30
0
11
18.182
21
-31.652
31
0
0
LINE
8
1
62
1
10
18.182
20
-31.652
30
0
11
19.589
21
-30.029
31
0
0
LINE
8
1
62
1
10
19.589
20
-30.029
30
0
11
20.965
21
-28.407
31
0
0
LINE
8
1
62
1
10
20.965
20
-28.407
30
0
11
21.564
21
-27.403
31
0
0
LINE
8
1
62
1
10
21.564
20
-27.403
30
0
11
21.858
21
-26.891
31
0
0
LINE
8
1
62
1
10
21.858
20
-26.891
30
0
11
22.141
21
-26.377
31
0
0
LINE
8
1
62
1
10
22.141
20
-26.377
30
0
11
22.408
21
-25.86
31
0
0
LINE
8
1
62
1
10
22.408
20
-25.86
30
0
11
22.657
21
-25.339
31
0
0
LINE
8
1
62
1
10
22.657
20
-25.339
30
0
11
22.882
21
-24.813
31
0
0
LINE
8
1
62
1
10
22.882
20
-24.813
30
0
11
23.082
21
-24.28
31
0
0
LINE
8
1
62
1
10
23.082
20
-24.28
30
0
11
23.253
21
-23.738
31
0
0
LINE
8
1
62
1
10
23.253
20
-23.738
30
0
11
23.396
21
-23.187
31
0
0
LINE
8
1
62
1
10
23.396
20
-23.187
30
0
11
23.515
21
-22.625
31
0
0
LINE
8
1
62
1
10
23.515
20
-22.625
30
0
11
23.615
21
-22.054
31
0
0
LINE
8
1
62
1
10
23.615
20
-22.054
30
0
11
23.698
21
-21.475
31
0
0
LINE
8
1
62
1
10
23.698
20
-21.475
30
0
11
23.77
21
-20.891
31
0
0
LINE
8
1
62
1
10
23.77
20
-20.891
30
0
11
23.891
21
-19.73
31
0
0
LINE
8
1
62
1
10
23.891
20
-19.73
30
0
11
23.838
21
-18.729
31
0
0
LINE
8
1
62
1
10
23.838
20
-18.729
30
0
11
23.801
21
-18.225
31
0
0
LINE
8
1
62
1
10
23.801
20
-18.225
30
0
11
23.752
21
-17.728
31
0
0
LINE
8
1
62
1
10
23.752
20
-17.728
30
0
11
23.687
21
-17.24
31
0
0
LINE
8
1
62
1
10
23.687
20
-17.24
30
0
11
23.602
21
-16.762
31
0
0
LINE
8
1
62
1
10
23.602
20
-16.762
30
0
11
23.495
21
-16.296
31
0
0
LINE
8
1
62
1
10
23.495
20
-16.296
30
0
11
23.36
21
-15.842
31
0
0
LINE
8
1
62
1
10
23.36
20
-15.842
30
0
11
23.195
21
-15.402
31
0
0
LINE
8
1
62
1
10
23.195
20
-15.402
30
0
11
22.997
21
-14.971
31
0
0
LINE
8
1
62
1
10
22.997
20
-14.971
30
0
11
22.77
21
-14.548
31
0
0
LINE
8
1
62
1
10
22.77
20
-14.548
30
0
11
22.519
21
-14.131
31
0
0
LINE
8
1
62
1
10
22.519
20
-14.131
30
0
11
22.247
21
-13.717
31
0
0
LINE
8
1
62
1
10
22.247
20
-13.717
30
0
11
21.96
21
-13.307
31
0
0
LINE
8
1
62
1
10
21.96
20
-13.307
30
0
11
21.38
21
-12.52
31
0
0
LINE
8
1
62
1
10
21.38
20
-12.52
30
0
11
20.624
21
-11.95
31
0
0
LINE
8
1
62
1
10
20.624
20
-11.95
30
0
11
20.229
21
-11.667
31
0
0
LINE
8
1
62
1
10
20.229
20
-11.667
30
0
11
19.832
21
-11.399
31
0
0
LINE
8
1
62
1
10
19.832
20
-11.399
30
0
11
19.43
21
-11.15
31
0
0
LINE
8
1
62
1
10
19.43
20
-11.15
30
0
11
19.023
21
-10.925
31
0
0
LINE
8
1
62
1
10
19.023
20
-10.925
30
0
11
18.608
21
-10.728
31
0
0
LINE
8
1
62
1
10
18.608
20
-10.728
30
0
11
18.184
21
-10.562
31
0
0
LINE
8
1
62
1
10
18.184
20
-10.562
30
0
11
17.748
21
-10.426
31
0
0
LINE
8
1
62
1
10
17.748
20
-10.426
30
0
11
17.298
21
-10.317
31
0
0
LINE
8
1
62
1
10
17.298
20
-10.317
30
0
11
16.836
21
-10.23
31
0
0
LINE
8
1
62
1
10
16.836
20
-10.23
30
0
11
16.364
21
-10.163
31
0
0
LINE
8
1
62
1
10
16.364
20
-10.163
30
0
11
15.884
21
-10.111
31
0
0
LINE
8
1
62
1
10
15.884
20
-10.111
30
0
11
15.396
21
-10.071
31
0
0
LINE
8
1
62
1
10
15.396
20
-10.071
30
0
11
14.423
21
-10.011
31
0
0
LINE
8
1
62
1
10
14.423
20
-10.011
30
0
11
13.441
21
-10.08
31
0
0
LINE
8
1
62
1
10
13.441
20
-10.08
30
0
11
12.949
21
-10.125
31
0
0
LINE
8
1
62
1
10
12.949
20
-10.125
30
0
11
12.465
21
-10.182
31
0
0
LINE
8
1
62
1
10
12.465
20
-10.182
30
0
11
11.99
21
-10.255
31
0
0
LINE
8
1
62
1
10
11.99
20
-10.255
30
0
11
11.525
21
-10.347
31
0
0
LINE
8
1
62
1
10
11.525
20
-10.347
30
0
11
11.073
21
-10.464
31
0
0
LINE
8
1
62
1
10
11.073
20
-10.464
30
0
11
10.635
21
-10.607
31
0
0
LINE
8
1
62
1
10
10.635
20
-10.607
30
0
11
10.211
21
-10.782
31
0
0
LINE
8
1
62
1
10
10.211
20
-10.782
30
0
11
9.796
21
-10.989
31
0
0
LINE
8
1
62
1
10
9.796
20
-10.989
30
0
11
9.389
21
-11.224
31
0
0
LINE
8
1
62
1
10
9.389
20
-11.224
30
0
11
8.987
21
-11.482
31
0
0
LINE
8
1
62
1
10
8.987
20
-11.482
30
0
11
8.59
21
-11.761
31
0
0
LINE
8
1
62
1
10
8.59
20
-11.761
30
0
11
8.197
21
-12.055
31
0
0
LINE
8
1
62
1
10
8.197
20
-12.055
30
0
11
7.445
21
-12.643
31
0
0
LINE
8
1
62
1
10
7.445
20
-12.643
30
0
11
6.786
21
-13.621
31
0
0
LINE
8
1
62
1
10
6.786
20
-13.621
30
0
11
6.459
21
-14.129
31
0
0
LINE
8
1
62
1
10
6.459
20
-14.129
30
0
11
6.15
21
-14.642
31
0
0
LINE
8
1
62
1
10
6.15
20
-14.642
30
0
11
5.863
21
-15.16
31
0
0
LINE
8
1
62
1
10
5.863
20
-15.16
30
0
11
5.603
21
-15.684
31
0
0
LINE
8
1
62
1
10
5.603
20
-15.684
30
0
11
5.376
21
-16.218
31
0
0
LINE
8
1
62
1
10
5.376
20
-16.218
30
0
11
5.183
21
-16.764
31
0
0
LINE
8
1
62
1
10
5.183
20
-16.764
30
0
11
5.021
21
-17.324
31
0
0
LINE
8
1
62
1
10
5.021
20
-17.324
30
0
11
4.887
21
-17.896
31
0
0
LINE
8
1
62
1
10
4.887
20
-17.896
30
0
11
4.776
21
-18.48
31
0
0
LINE
8
1
62
1
10
4.776
20
-18.48
30
0
11
4.684
21
-19.073
31
0
0
LINE
8
1
62
1
10
4.684
20
-19.073
30
0
11
4.609
21
-19.674
31
0
0
LINE
8
1
62
1
10
4.609
20
-19.674
30
0
11
4.545
21
-20.281
31
0
0
LINE
8
1
62
1
10
4.545
20
-20.281
30
0
11
4.437
21
-21.512
31
0
0
ARC
8
1
62
1
10
4.138
20
-21.486
30
0
40
0.3
50
-95.710648
51
-5.020327
0
LINE
8
1
62
1
10
4.108
20
-21.784
30
0
11
-7.811
21
-20.592
31
0
0
LINE
8
1
62
1
10
-16.3
20
-13.394
30
0
11
-16.3
21
-55.606
31
0
0
ARC
8
1
62
1
10
-16.6
20
-55.606
30
0
40
0.3
50
-90
51
0
0
LINE
8
1
62
1
10
-16.6
20
-55.907
30
0
11
-143.4
21
-55.907
31
0
0
ARC
8
1
62
1
10
-143.4
20
-55.606
30
0
40
0.3
50
180
51
-90
0
LINE
8
1
62
1
10
-143.7
20
-55.606
30
0
11
-143.7
21
95.606
31
0
0
ARC
8
1
62
1
10
-143.4
20
95.606
30
0
40
0.3
50
90
51
180
0
LINE
8
1
62
1
10
-143.4
20
95.907
30
0
11
-16.6
21
95.907
31
0
0
ARC
8
1
62
1
10
-16.6
20
95.606
30
0
40
0.3
50
0
51
90
0
LINE
8
1
62
1
10
-16.3
20
95.606
30
0
11
-16.3
21
-13.394
31
0
0
LINE
8
1
62
1
10
15.449
20
15.245
30
0
11
10
21
15.245
31
0
0
ARC
8
1
62
1
10
10
20
15.545
30
0
40
0.3
50
180
51
-90
0
LINE
8
1
62
1
10
9.7
20
15.545
30
0
11
9.7
21
69.362
31
0
0
LINE
8
1
62
1
10
9.7
20
69.362
30
0
11
8.08
21
68.022
31
0
0
LINE
8
1
62
1
10
8.08
20
68.022
30
0
11
8.077
21
68.02
31
0
0
LINE
8
1
62
1
10
8.077
20
68.02
30
0
11
7.013
21
67.161
31
0
0
LINE
8
1
62
1
10
7.013
20
67.161
30
0
11
7.009
21
67.159
31
0
0
LINE
8
1
62
1
10
7.009
20
67.159
30
0
11
5.934
21
66.318
31
0
0
LINE
8
1
62
1
10
5.934
20
66.318
30
0
11
5.929
21
66.315
31
0
0
LINE
8
1
62
1
10
5.929
20
66.315
30
0
11
4.84
21
65.499
31
0
0
LINE
8
1
62
1
10
4.84
20
65.499
30
0
11
4.834
21
65.495
31
0
0
LINE
8
1
62
1
10
4.834
20
65.495
30
0
11
3.726
21
64.709
31
0
0
LINE
8
1
62
1
10
3.726
20
64.709
30
0
11
3.721
21
64.705
31
0
0
LINE
8
1
62
1
10
3.721
20
64.705
30
0
11
3.159
21
64.326
31
0
0
LINE
8
1
62
1
10
3.159
20
64.326
30
0
11
3.155
21
64.323
31
0
0
LINE
8
1
62
1
10
3.155
20
64.323
30
0
11
2.588
21
63.954
31
0
0
LINE
8
1
62
1
10
2.588
20
63.954
30
0
11
2.583
21
63.951
31
0
0
LINE
8
1
62
1
10
2.583
20
63.951
30
0
11
2.01
21
63.592
31
0
0
LINE
8
1
62
1
10
2.01
20
63.592
30
0
11
2.005
21
63.589
31
0
0
LINE
8
1
62
1
10
2.005
20
63.589
30
0
11
1.424
21
63.241
31
0
0
LINE
8
1
62
1
10
1.424
20
63.241
30
0
11
1.419
21
63.238
31
0
0
LINE
8
1
62
1
10
1.419
20
63.238
30
0
11
0.832
21
62.902
31
0
0
LINE
8
1
62
1
10
0.832
20
62.902
30
0
11
0.827
21
62.9
31
0
0
LINE
8
1
62
1
10
0.827
20
62.9
30
0
11
0.233
21
62.575
31
0
0
LINE
8
1
62
1
10
0.233
20
62.575
30
0
11
0.229
21
62.572
31
0
0
LINE
8
1
62
1
10
0.229
20
62.572
30
0
11
-0.371
21
62.258
31
0
0
LINE
8
1
62
1
10
-0.371
20
62.258
30
0
11
-0.375
21
62.256
31
0
0
LINE
8
1
62
1
10
-0.375
20
62.256
30
0
11
-0.981
21
61.951
31
0
0
LINE
8
1
62
1
10
-0.981
20
61.951
30
0
11
-0.987
21
61.948
31
0
0
LINE
8
1
62
1
10
-0.987
20
61.948
30
0
11
-2.213
21
61.365
31
0
0
LINE
8
1
62
1
10
-2.213
20
61.365
30
0
11
-2.22
21
61.362
31
0
0
LINE
8
1
62
1
10
-2.22
20
61.362
30
0
11
-3.464
21
60.809
31
0
0
LINE
8
1
62
1
10
-3.464
20
60.809
30
0
11
-3.469
21
60.806
31
0
0
LINE
8
1
62
1
10
-3.469
20
60.806
30
0
11
-4.727
21
60.277
31
0
0
LINE
8
1
62
1
10
-4.727
20
60.277
30
0
11
-4.731
21
60.275
31
0
0
LINE
8
1
62
1
10
-4.731
20
60.275
30
0
11
-6
21
59.763
31
0
0
LINE
8
1
62
1
10
-6
20
59.763
30
0
11
-6.003
21
59.762
31
0
0
LINE
8
1
62
1
10
-6.003
20
59.762
30
0
11
-8.557
21
58.768
31
0
0
ARC
8
1
62
1
10
-8.666
20
59.047
30
0
40
0.3
50
180
51
-68.735763
0
LINE
8
1
62
1
10
-8.966
20
59.047
30
0
11
-8.966
21
72.16
31
0
0
ARC
8
1
62
1
10
-8.666
20
72.16
30
0
40
0.3
50
112.387456
51
180
0
LINE
8
1
62
1
10
-8.78
20
72.437
30
0
11
-7.134
21
73.115
31
0
0
LINE
8
1
62
1
10
-7.134
20
73.115
30
0
11
-6.318
21
73.462
31
0
0
LINE
8
1
62
1
10
-6.318
20
73.462
30
0
11
-5.509
21
73.818
31
0
0
LINE
8
1
62
1
10
-5.509
20
73.818
30
0
11
-4.708
21
74.187
31
0
0
LINE
8
1
62
1
10
-4.708
20
74.187
30
0
11
-3.919
21
74.572
31
0
0
LINE
8
1
62
1
10
-3.919
20
74.572
30
0
11
-3.141
21
74.977
31
0
0
LINE
8
1
62
1
10
-3.141
20
74.977
30
0
11
-2.377
21
75.404
31
0
0
LINE
8
1
62
1
10
-2.377
20
75.404
30
0
11
-1.625
21
75.855
31
0
0
LINE
8
1
62
1
10
-1.625
20
75.855
30
0
11
-0.883
21
76.325
31
0
0
LINE
8
1
62
1
10
-0.883
20
76.325
30
0
11
-0.149
21
76.814
31
0
0
LINE
8
1
62
1
10
-0.149
20
76.814
30
0
11
0.576
21
77.316
31
0
0
LINE
8
1
62
1
10
0.576
20
77.316
30
0
11
2.016
21
78.355
31
0
0
LINE
8
1
62
1
10
2.016
20
78.355
30
0
11
3.435
21
79.412
31
0
0
LINE
8
1
62
1
10
3.435
20
79.412
30
0
11
4.88
21
80.673
31
0
0
LINE
8
1
62
1
10
4.88
20
80.673
30
0
11
5.591
21
81.314
31
0
0
LINE
8
1
62
1
10
5.591
20
81.314
30
0
11
6.287
21
81.965
31
0
0
LINE
8
1
62
1
10
6.287
20
81.965
30
0
11
6.961
21
82.629
31
0
0
LINE
8
1
62
1
10
6.961
20
82.629
30
0
11
7.611
21
83.311
31
0
0
LINE
8
1
62
1
10
7.611
20
83.311
30
0
11
7.923
21
83.658
31
0
0
LINE
8
1
62
1
10
7.923
20
83.658
30
0
11
8.228
21
84.012
31
0
0
LINE
8
1
62
1
10
8.228
20
84.012
30
0
11
8.524
21
84.371
31
0
0
LINE
8
1
62
1
10
8.524
20
84.371
30
0
11
8.81
21
84.737
31
0
0
LINE
8
1
62
1
10
8.81
20
84.737
30
0
11
9.087
21
85.11
31
0
0
LINE
8
1
62
1
10
9.087
20
85.11
30
0
11
9.354
21
85.49
31
0
0
LINE
8
1
62
1
10
9.354
20
85.49
30
0
11
9.612
21
85.878
31
0
0
LINE
8
1
62
1
10
9.612
20
85.878
30
0
11
9.861
21
86.271
31
0
0
LINE
8
1
62
1
10
9.861
20
86.271
30
0
11
10.34
21
87.08
31
0
0
LINE
8
1
62
1
10
10.34
20
87.08
30
0
11
10.792
21
87.909
31
0
0
LINE
8
1
62
1
10
10.792
20
87.909
30
0
11
11.225
21
88.755
31
0
0
LINE
8
1
62
1
10
11.225
20
88.755
30
0
11
11.642
21
89.616
31
0
0
LINE
8
1
62
1
10
11.642
20
89.616
30
0
11
12.453
21
91.363
31
0
0
ARC
8
1
62
1
10
12.725
20
91.237
30
0
40
0.3
50
90
51
155.091567
0
LINE
8
1
62
1
10
12.725
20
91.537
30
0
11
24.449
21
91.537
31
0
0
ARC
8
1
62
1
10
24.449
20
91.237
30
0
40
0.3
50
0
51
90
0
LINE
8
1
62
1
10
24.749
20
91.237
30
0
11
24.749
21
15.545
31
0
0
ARC
8
1
62
1
10
24.449
20
15.545
30
0
40
0.3
50
-90
51
0
0
LINE
8
1
62
1
10
24.449
20
15.245
30
0
11
15.449
21
15.245
31
0
0
ARC
8
1
62
1
10
41
20
38
30
0
40
0.3
50
180
51
-138.312795
0
LINE
8
1
62
1
10
40.7
20
38
30
0
11
40.7
21
88
31
0
0
ARC
8
1
62
1
10
41
20
88
30
0
40
0.3
50
90
51
180
0
LINE
8
1
62
1
10
41
20
88.3
30
0
11
91
21
88.3
31
0
0
ARC
8
1
62
1
10
91
20
88
30
0
40
0.3
50
0
51
90
0
LINE
8
1
62
1
10
91.3
20
88
30
0
11
91.3
21
38
31
0
0
ARC
8
1
62
1
10
91
20
38
30
0
40
0.3
50
-90
51
0
0
LINE
8
1
62
1
10
91
20
37.7
30
0
11
41
21
37.7
31
0
0
ARC
8
1
62
1
10
41
20
38
30
0
40
0.3
50
-138.312795
51
-90
0
ENDSEC
0
EOF
